<?xml version="1.0" encoding="utf-8"?>
<!-- Generator: Adobe Illustrator 24.1.2, SVG Export Plug-In . SVG Version: 6.00 Build 0)  -->
<svg version="1.1" id="background-06_1_" xmlns="http://www.w3.org/2000/svg" xmlns:xlink="http://www.w3.org/1999/xlink" x="0px"
	 y="0px" viewBox="0 0 1500 1000" style="enable-background:new 0 0 1500 1000;" xml:space="preserve">
<style type="text/css">
	.st0{opacity:0.1;clip-path:url(#mask_1_);}
	.st1{fill:#FFFFFF;}
</style>
<g id="background">
	<defs>
		<rect id="mask" width="1500" height="1000"/>
	</defs>
	<clipPath id="mask_1_">
		<use xlink:href="#mask"  style="overflow:visible;"/>
	</clipPath>
	<g id="background-06" class="st0">
		<g id="lines">
			<path id="line_14_" class="st1" d="M1043.7,1442.4c-10.9,0-21.8-1.3-32.5-3.8c-30.1-7.2-57.2-24.3-76.5-48.3l0,0l-0.6-0.8
				c0,0,0,0,0,0l-0.6-0.7l0,0c-8-10.5-13.8-25.6-16.3-42.8c-2.6-17.2-1.7-35,2.4-50c4.6-16.8,12.9-28.9,24-35
				c13-7.2,28.8-6.1,47.2,3.3c0.1,0.1,0.3,0.1,0.4,0.2c10.6,5.4,38.5,19.7,81.4,7.5c55.5-15.7,113.8-68.8,173.5-158
				c17-25.4,31-42.6,41.8-51.1c5.3-4.2,9.7-6.3,13.5-6.3c2,0,3.8,0.5,5.4,1.6c1.4,1,2.6,2.6,3.6,4.6c1.6,3.6,2.4,8.7,2.4,15.3
				c0,6.3-0.9,13.9-2.4,22.7c-3.1,17.6-9.1,39.3-17.3,62.8c-18.5,52.9-46.2,109.1-75.9,154c-36.8,55.7-76.5,94.5-114.8,112
				C1083.9,1438.1,1063.8,1442.4,1043.7,1442.4z M935.7,1388.2c19,24,46,41.2,76,48.4c29.9,7.2,61.8,4,89.8-8.8
				c37.9-17.4,77.3-55.9,114-111.3c29.6-44.8,57.2-100.8,75.6-153.6c8.2-23.4,14.1-45,17.2-62.5c1.5-8.7,2.3-16.2,2.4-22.4
				c0.1-6.3-0.7-11.2-2.2-14.5c-0.8-1.7-1.8-3-2.9-3.8c-1.2-0.9-2.6-1.3-4.2-1.3c-3.3,0.1-7.4,2-12.3,5.9
				c-10.6,8.4-24.5,25.4-41.4,50.6c-59.9,89.6-118.7,143-174.6,158.8c-43.6,12.3-72.1-2.2-82.8-7.7c-0.2-0.1-0.3-0.2-0.4-0.2
				c-17.8-9.1-33-10.2-45.3-3.3c-10.6,5.9-18.5,17.6-23,33.8c-4.1,14.7-4.9,32.2-2.4,49.1C921.7,1362.9,927.6,1378,935.7,1388.2
				L935.7,1388.2L935.7,1388.2z"/>
			<path id="line_13_" class="st1" d="M1016.9,1432.5c-16.3,0-32.6-1.9-48.5-5.7c-45-10.8-85.6-36.5-114.4-72.5l0,0l-0.6-0.8
				c0,0,0,0,0,0l-0.6-0.8l0,0c-12-15.6-20.7-38.3-24.6-64.1c-3.8-25.7-2.5-52.2,3.6-74.5c6.8-24.9,19.1-42.8,35.5-52
				c19.1-10.7,42.6-9,69.9,4.9c0.1,0.1,0.3,0.1,0.4,0.2l0.2,0.1c15.9,8.1,58.1,29.7,122.8,11.4c37.2-10.5,76-32.8,115.2-66.1
				c47.7-40.6,96.7-98.2,145.6-171.3c25.4-38,46.4-63.7,62.5-76.4c7.6-6.1,14.2-9.2,19.6-9.3c2.8,0,5.3,0.7,7.5,2.3
				c2,1.5,3.7,3.7,5,6.5c2.4,5.2,3.6,12.8,3.5,22.6c-0.1,9.4-1.3,20.8-3.6,33.9c-4.6,26.3-13.6,58.8-25.9,94
				c-27.7,79.3-69.1,163.4-113.7,230.8c-55.1,83.4-114.5,141.4-171.8,167.7C1076.9,1426.1,1046.9,1432.5,1016.9,1432.5z
				 M854.8,1352.3c28.6,36.1,69,61.8,114,72.6c44.9,10.7,92.8,6,134.7-13.2c56.9-26.1,116-83.8,170.9-166.9
				c44.4-67.3,85.8-151.3,113.4-230.4c12.3-35.2,21.2-67.6,25.8-93.7c2.3-13,3.5-24.3,3.6-33.6c0.1-9.5-1-16.8-3.3-21.7
				c-1.1-2.5-2.6-4.4-4.4-5.7c-1.8-1.3-3.9-1.9-6.3-1.9c-4.9,0.1-11.1,3.1-18.4,8.8c-15.9,12.6-36.8,38.1-62.1,75.9
				c-49,73.2-98.1,131-146,171.7c-39.4,33.5-78.4,55.9-115.9,66.5c-18.5,5.2-35.2,7.2-50,7.2c-37.5,0-62.7-12.9-74.2-18.8l-0.2-0.1
				c-0.1-0.1-0.3-0.1-0.4-0.2c-26.6-13.6-49.5-15.2-68-4.9c-15.9,8.9-27.8,26.4-34.5,50.7c-6.1,22.1-7.3,48.3-3.6,73.7
				C833.9,1314.3,842.7,1337,854.8,1352.3L854.8,1352.3z"/>
			<path id="line_12_" class="st1" d="M991,1422.7c-21.7,0-43.3-2.5-64.6-7.6c-60-14.3-114.1-48.7-152.4-96.7l0,0l-0.6-0.7
				c0,0,0-0.1-0.1-0.1l-0.6-0.8l0,0c-16.1-20.7-27.7-51-32.8-85.4c-5.1-34.2-3.4-69.3,4.8-99.1c9.1-33,25.3-56.8,47-68.9
				c25.3-14.1,56.4-11.9,92.6,6.6c0.3,0.1,0.5,0.3,0.8,0.4c21.3,10.9,77.7,39.7,164.2,15.2c49.7-14.1,101.5-43.8,153.8-88.3
				c63.7-54.2,129.1-131.1,194.3-228.5c33.9-50.6,61.8-84.8,83.2-101.7c10.1-8,18.7-12.1,25.8-12.2c3.6-0.1,6.8,0.9,9.5,2.9
				c2.6,1.9,4.8,4.7,6.5,8.4c3.1,6.8,4.7,16.8,4.6,29.8c-0.1,12.5-1.7,27.6-4.8,45.1c-6.2,35-18.1,78.3-34.5,125.3
				c-37,105.7-92.2,217.8-151.5,307.6c-34.7,52.5-70.7,97.7-107.1,134.2c-40.5,40.7-81.4,70.6-121.6,89.1
				C1070.8,1414.1,1030.9,1422.7,991,1422.7z M774.9,1316.4c38.1,48.1,92.1,82.5,151.9,96.8c59.9,14.3,123.7,8.1,179.6-17.6
				c40-18.3,80.7-48.2,121-88.7c36.3-36.4,72.2-81.5,106.9-133.9c59.2-89.7,114.4-201.6,151.3-307.2c16.4-46.9,28.3-90.1,34.5-125
				c3.1-17.4,4.7-32.4,4.8-44.8c0.1-12.7-1.4-22.4-4.4-28.9c-1.5-3.4-3.5-5.9-5.8-7.6c-2.4-1.7-5.2-2.6-8.3-2.5
				c-6.6,0.1-14.8,4.1-24.5,11.8c-21.2,16.8-49,50.8-82.8,101.2c-65.3,97.6-130.8,174.6-194.7,228.9
				c-52.5,44.7-104.5,74.5-154.6,88.7c-24.7,7-47,9.7-66.7,9.7c-50,0-83.6-17.2-98.9-25c-0.3-0.1-0.6-0.3-0.8-0.4
				c-35.5-18.1-66-20.4-90.7-6.6c-21.2,11.8-37.1,35.2-46,67.7c-8.1,29.5-9.8,64.4-4.8,98.3C747,1265.7,758.8,1296,774.9,1316.4
				L774.9,1316.4z"/>
			<path id="line_11_" class="st1" d="M964.4,1412.9c-27.2,0-54.3-3.2-80.9-9.5c-37.2-8.9-72.4-23.7-104.6-44
				c-32.8-20.7-61.6-46.5-85.8-76.9l0,0l-0.6-0.7c0,0,0-0.1-0.1-0.1l-0.6-0.8l0,0c-20.1-25.8-34.7-63.6-41.1-106.7
				c-6.3-42.6-4.2-86.6,6-123.7c11.3-41.1,31.5-70.8,58.5-85.8c31.4-17.5,70.2-14.8,115.3,8.2l1,0.5c26.6,13.6,97.3,49.7,205.6,19.1
				c62.2-17.6,127-54.8,192.4-110.4c79.7-67.8,161.4-163.9,243-285.8c42.3-63.1,77.2-105.9,103.8-127c12.5-9.9,23.2-15,31.9-15.1
				c4.4-0.1,8.3,1.1,11.6,3.5c3.2,2.3,5.9,5.8,7.9,10.3c3.9,8.5,5.8,20.9,5.7,37c-0.1,15.6-2.1,34.5-6,56.3
				c-7.7,43.7-22.6,97.9-43.2,156.5c-46.2,132.1-115.2,272.2-189.3,384.4c-43.4,65.6-88.4,122.1-133.8,167.7
				c-50.5,50.8-101.6,88.2-151.9,111.2c-35.7,16.4-73.6,26.5-112.6,30.2C986,1412.4,975.2,1412.9,964.4,1412.9z M694.7,1281.2
				c24.1,30.2,52.8,55.9,85.3,76.5c32,20.2,67,34.9,104,43.7c37,8.8,74.9,11.5,112.6,8c38.8-3.6,76.4-13.7,111.9-30
				c50-22.9,100.9-60.2,151.3-110.8c45.4-45.6,90.3-101.9,133.6-167.4c74-112.1,143-252.1,189.1-384
				c20.5-58.6,35.4-112.6,43.1-156.2c3.8-21.7,5.8-40.5,5.9-56c0.1-15.8-1.7-28-5.5-36.2c-1.9-4.2-4.4-7.4-7.3-9.5
				c-3-2.1-6.5-3.2-10.4-3.1c-8.2,0.1-18.5,5.1-30.7,14.7c-26.5,21-61.3,63.6-103.4,126.5c-81.7,122-163.5,218.3-243.3,286.2
				c-65.7,55.9-130.7,93.2-193.2,110.8c-30.9,8.7-58.7,12.1-83.4,12.1c-62.5,0-104.5-21.5-123.7-31.3l-1-0.5
				c-44.4-22.7-82.6-25.4-113.4-8.3c-26.5,14.8-46.4,44-57.5,84.6c-10.1,36.8-12.2,80.5-6,122.8c6.4,42.9,20.9,80.5,40.9,106.1
				L694.7,1281.2L694.7,1281.2z"/>
			<path id="line_10_" class="st1" d="M938.6,1403.1c-32.6,0-65.1-3.8-97-11.4c-44.6-10.6-86.8-28.4-125.4-52.7
				c-39.6-25-74.5-56.3-103.7-93.1c-24.5-30.9-42.2-76.7-50-128.8c-7.6-51.1-5-103.7,7.2-148.2c13.5-49.2,37.7-84.7,70-102.7
				c37.6-21,84-17.6,138,9.9l1.2,0.6c15.6,8,44.7,22.9,86.3,31.2c51,10.2,105.1,7.4,160.7-8.3c74.7-21.1,152.5-65.8,231.1-132.6
				c95.6-81.3,193.7-196.8,291.6-343l0.8,0.6l-0.8-0.6c50.7-75.7,92.6-127,124.5-152.3c14.9-11.8,27.7-17.9,38-18.1
				c5.1-0.1,9.8,1.3,13.7,4.1c3.8,2.7,6.9,6.8,9.4,12.2c4.6,10.1,6.9,25,6.8,44.3c-0.1,18.7-2.6,41.4-7.2,67.5
				c-9.3,52.5-27.2,117.4-51.8,187.8c-55.4,158.5-138.2,326.6-227.1,461.2c-52,78.8-106,146.5-160.5,201.2
				c-60.6,60.9-121.9,105.8-182.1,133.4c-42.8,19.6-88.2,31.8-135,36.1C964.5,1402.5,951.6,1403.1,938.6,1403.1z M693.4,854.5
				c-19.1,0-36.7,4.4-52.6,13.3c-31.8,17.7-55.6,52.8-69,101.5c-12.2,44.2-14.7,96.6-7.1,147.4c7.7,51.8,25.3,97.2,49.6,127.8
				c29,36.6,63.7,67.8,103.2,92.7c38.4,24.2,80.4,41.9,124.8,52.5c44.4,10.6,89.8,13.8,135.2,9.6c46.5-4.3,91.7-16.4,134.3-36
				c60-27.5,121.1-72.3,181.6-133c54.4-54.7,108.3-122.3,160.3-200.9c88.8-134.5,171.6-302.5,226.9-460.8
				c24.6-70.3,42.4-135.1,51.7-187.5c4.6-26,7-48.6,7.1-67.2c0.1-19-2.1-33.6-6.6-43.4c-2.3-5-5.2-8.9-8.7-11.4
				c-3.6-2.6-7.8-3.8-12.5-3.8c-9.8,0.2-22.2,6.1-36.8,17.7c-31.8,25.2-73.5,76.3-124.1,151.8l0,0c-98,146.4-196.2,262-292,343.4
				c-78.8,67-156.8,111.8-231.8,133c-55.9,15.8-110.3,18.6-161.6,8.3c-41.9-8.4-71.1-23.4-86.9-31.4l-1.2-0.6
				C746.5,862.2,718.6,854.5,693.4,854.5z"/>
			<path id="line_9_" class="st1" d="M911.8,1393.2c-38,0-75.9-4.5-113.1-13.3c-52-12.4-101.1-33.1-146.2-61.5
				c-46.2-29.1-86.9-65.7-120.8-108.6c-28.5-36-49.2-89.3-58.2-150.1c-8.9-59.6-5.9-120.9,8.4-172.8c15.8-57.3,43.9-98.7,81.5-119.6
				c20.9-11.6,44.5-16.8,70.3-15.5c27.7,1.5,58.1,10.6,90.3,27l1.4,0.7c18.3,9.3,52.2,26.7,100.8,36.4
				c59.5,11.9,122.7,8.7,187.6-9.7c87.2-24.7,178-76.8,269.7-154.8c111.6-94.9,226.1-229.6,340.3-400.2
				c59.1-88.3,108-148.1,145.2-177.6c17.4-13.7,32.2-20.8,44.2-21c6-0.1,11.3,1.5,15.8,4.8c4.4,3.2,8,7.9,10.8,14.1
				c5.4,11.8,8,29.1,7.9,51.5c-0.2,21.8-3,48.2-8.4,78.7c-10.8,61.2-31.7,136.9-60.4,219c-30.2,86.4-68.7,178.5-111.3,266.4
				c-47.4,97.6-99.1,189-153.6,271.6c-60.7,91.9-123.7,170.8-187.2,234.7c-70.7,71-142.1,123.3-212.4,155.6
				c-49.9,22.9-102.9,37.1-157.3,42.1C942,1392.5,926.9,1393.2,911.8,1393.2z M625.7,753.5c-22.3,0-42.8,5.2-61.4,15.5
				c-37.1,20.7-64.9,61.6-80.5,118.4c-14.2,51.6-17.1,112.7-8.3,172c9,60.4,29.5,113.4,57.8,149.1c33.8,42.7,74.3,79.1,120.3,108.1
				c44.8,28.3,93.8,48.9,145.6,61.2c51.8,12.4,104.8,16.1,157.7,11.2c54.3-5.1,107-19.2,156.7-42c70-32.1,141.3-84.3,211.8-155.1
				c63.5-63.8,126.4-142.6,187-234.4c103.7-156.9,200.2-352.9,264.7-537.6c28.7-82,49.5-157.6,60.3-218.7
				c5.4-30.3,8.2-56.7,8.3-78.4c0.2-22.1-2.4-39.1-7.7-50.6c-2.7-5.9-6.1-10.3-10.2-13.3c-4.2-3-9.1-4.5-14.6-4.4
				c-11.5,0.2-25.9,7.1-42.9,20.6c-37.1,29.4-85.8,89-144.8,177.1l-0.8-0.6l0.8,0.6C1511.2,423.2,1396.6,558,1284.9,653
				c-92,78.2-183,130.4-270.5,155.2c-65.3,18.5-128.7,21.7-188.6,9.7c-48.8-9.8-83-27.2-101.3-36.6l-1.4-0.7
				C687.7,762.5,655.1,753.5,625.7,753.5z"/>
			<path id="line_8_" class="st1" d="M886,1383.4c-43.4,0-86.7-5.1-129.2-15.2c-59.4-14.2-115.5-37.8-167-70.2
				c-52.8-33.3-99.2-75-138-124c-32.6-41.1-56.2-102-66.5-171.4c-10.1-68.1-6.7-138.1,9.6-197.4c18-65.4,50.1-112.6,93-136.5
				c23.8-13.3,50.8-19.2,80.2-17.7c31.6,1.7,66.3,12,103.1,30.8l1.6,0.8c20.9,10.7,59.7,30.5,115.3,41.7
				c68.1,13.7,140.3,9.9,214.6-11.1c99.7-28.2,203.5-87.7,308.4-177c127.6-108.5,258.4-262.4,389-457.5l0.8,0.6l-0.8-0.6
				c67.5-100.9,123.4-169.2,165.9-202.9c19.8-15.7,36.7-23.7,50.3-24c6.7-0.1,12.8,1.7,17.9,5.4c4.9,3.6,9.1,8.9,12.3,16
				c6.1,13.4,9.2,33.2,9,58.7c-0.2,24.8-3.4,55.1-9.5,89.9c-12.3,69.9-36.2,156.5-69,250.3c-34.5,98.7-78.5,204-127.2,304.4
				c-54.1,111.6-113.2,216-175.5,310.4c-69.3,105-141.3,195.2-214,268.2c-80.8,81.1-162.4,140.9-242.7,177.7
				c-57,26.1-117.5,42.3-179.7,48.1C920.5,1382.6,903.2,1383.4,886,1383.4z M559,652.7c-25.5,0-49.1,5.9-70.1,17.7
				c-42.4,23.6-74.2,70.4-92,135.3c-16.2,59-19.6,128.8-9.5,196.5c10.3,69.1,33.7,129.6,66.1,170.4c38.7,48.8,85,90.4,137.5,123.6
				c51.2,32.3,107.2,55.8,166.4,70c59.1,14.1,119.8,18.4,180.2,12.8c62-5.8,122.3-21.9,179.1-48c80-36.7,161.5-96.3,242.1-177.3
				c72.6-72.9,144.5-163,213.7-267.9c62.3-94.3,121.3-198.7,175.4-310.2c48.7-100.3,92.6-205.5,127.1-304.2
				c32.8-93.7,56.6-180.1,68.9-249.9c6.1-34.7,9.3-64.8,9.5-89.5c0.2-25.3-2.8-44.8-8.8-57.9c-3.1-6.7-7-11.8-11.6-15.2
				c-4.7-3.4-10.3-5.1-16.7-5c-13.1,0.2-29.6,8.2-49.1,23.6c-42.4,33.6-98.1,101.7-165.5,202.4l0,0
				c-130.6,195.2-261.6,349.3-389.3,457.9c-105.1,89.4-209.1,149.1-309.1,177.4c-74.6,21.1-147.1,24.8-215.5,11.1
				c-55.8-11.2-94.8-31.1-115.8-41.9l-1.6-0.8c-36.6-18.7-71-29-102.3-30.6C565,652.8,562,652.7,559,652.7z"/>
			<path id="line_7_" class="st1" d="M386.2,45.2c-4.1,0-7.9-0.3-11.6-0.8c-32.5-4.6-57.5-30.6-60.8-63.2c-0.7-6.8,1-15.1,4.7-23.4
				c3.6-8.1,8.9-15.4,14.8-20.7c6.7-6,13.7-8.9,20.3-8.5c7.8,0.5,14.4,5.4,19.8,14.6l0.1,0.2c2.9,5,10.7,18.3,31.6,24.7
				c7.6,2.3,16.2,3.5,25.6,3.5c24.2,0,54.1-7.7,89.4-23c14.1-6.1,24.8-9.6,31.7-10.3c3.6-0.4,6.2,0,8,1.1c1,0.6,1.8,1.5,2.2,2.6
				c0.4,1,0.5,2.1,0.3,3.4c-0.3,2.1-1.4,4.6-3.3,7.5c-1.8,2.7-4.2,5.7-7.3,9c-6.1,6.6-14.5,14.1-24.4,21.8
				c-22.1,17.3-49,33.5-73.7,44.4C428.4,39.4,405.3,45.2,386.2,45.2z M352.4-69.5c-7.2,0-13.6,4.3-17.7,8
				c-5.7,5.1-10.8,12.2-14.3,20c-3.6,8-5.2,15.9-4.6,22.4c3.1,31.7,27.4,57,59,61.5c20.7,2.9,47.6-2.6,78-16
				c24.6-10.9,51.3-27,73.3-44.2c9.8-7.6,18.1-15.1,24.1-21.6c3-3.2,5.4-6.2,7-8.8c1.7-2.6,2.7-4.9,3-6.7c0.1-0.9,0.1-1.7-0.2-2.4
				c-0.3-0.7-0.7-1.2-1.4-1.7c-1.4-0.9-3.7-1.1-6.8-0.8c-6.7,0.7-17.2,4.1-31.1,10.1l-0.4-0.9l0.4,0.9
				C471.5-28.1,432.4-21.5,404.6-30c-21.7-6.6-29.7-20.4-32.8-25.6l-0.1-0.2c-5-8.6-11.1-13.2-18.2-13.7
				C353.1-69.5,352.8-69.5,352.4-69.5z"/>
			<path id="line_6_" class="st1" d="M344.2,116c-8,0-15.7-0.5-23-1.6c-30.9-4.4-59.8-19.2-81.5-41.7c-21.4-22.3-35-51.4-38.2-82
				l0,0l-0.1-1c0,0,0,0,0,0l-0.1-1l0,0c-1.1-13.1,2.3-29,9.4-44.8c7.2-15.9,17.5-30.3,29-40.7c12.9-11.6,26.5-17.3,39.1-16.5
				c14.8,0.9,27.6,10.4,38,28.3l0.2,0.4c21.8,37.4,52.7,46.8,64.4,50.3c55.1,16.8,133,3.6,231.4-39.2c28-12.2,49.1-19,62.8-20.4
				c6.7-0.7,11.5,0,14.8,2c1.7,1.1,2.9,2.5,3.6,4.3c0.7,1.7,0.8,3.6,0.5,5.8c-0.6,3.9-2.7,8.6-6.3,14.2c-3.4,5.3-8.3,11.3-14.3,17.8
				C661.8-36.8,645-21.7,625.4-6.4c-44.2,34.5-97.8,66.8-147.1,88.6C427.9,104.5,382.1,116,344.2,116z M203.4-10.5
				c3,30.5,16.4,59.6,37.8,81.8c21.3,22.2,49.9,36.8,80.3,41.1c41.3,5.9,95.3-5.2,156-32.1C526.7,58.7,580.1,26.5,624.2-8
				c19.6-15.3,36.2-30.2,48.3-43.3c6-6.5,10.7-12.4,14.1-17.5c3.5-5.3,5.5-9.8,6-13.4c0.3-1.8,0.1-3.4-0.4-4.8
				c-0.5-1.4-1.5-2.5-2.8-3.3c-2.8-1.7-7.3-2.3-13.5-1.7c-13.4,1.3-34.4,8.1-62.2,20.2c-98.8,43-177.1,56.2-232.7,39.2
				c-43.4-13.2-59.5-40.8-65.5-51.2l-0.2-0.4c-10-17.2-22.3-26.4-36.4-27.3c-12.1-0.8-25.1,4.8-37.6,16
				c-11.4,10.2-21.5,24.4-28.6,40.1C205.4-39.3,202.1-23.4,203.4-10.5L203.4-10.5z"/>
			<path id="line_5_" class="st1" d="M301.6,187.6c-12,0-23.5-0.8-34.3-2.3c-46.1-6.6-89.3-28.7-121.6-62.3
				C113.6,89.6,93.3,46,88.6,0.1h0l-0.2-2l0,0c-1.7-19.6,3.2-43.4,14-67.2c10.7-23.7,26.1-45.2,43.3-60.7
				c19.2-17.2,39.2-25.7,57.9-24.5c21.8,1.4,40.7,15.5,56.2,41.9l0.3,0.6c32.8,56.4,79.6,70.6,97.1,75.9
				c37,11.3,81.6,13.5,132.6,6.6C552-37.6,624.4-59.7,705-94.7c41.9-18.2,73.5-28.5,93.8-30.5c9.7-1,16.9,0,21.5,2.8
				c2.4,1.5,4.1,3.5,5.1,5.9c0.9,2.3,1.2,5.1,0.7,8.2c-0.8,5.7-3.9,12.7-9.3,20.9c-5.1,7.9-12.3,16.8-21.4,26.6
				c-18.1,19.6-43.2,42.1-72.6,65.1C656.6,56,576.3,104.4,502.4,137C426.9,170.4,358.4,187.6,301.6,187.6z M90.4-1.1
				c4.5,45.8,24.7,89.3,56.7,122.6c32,33.3,74.8,55.2,120.5,61.7c62,8.8,142.9-7.8,234-48.1c73.7-32.6,153.9-80.9,220-132.5
				C750.9-20.2,776-42.7,794-62.2c9-9.7,16.1-18.6,21.2-26.3c5.2-7.9,8.2-14.7,9-20c0.4-2.7,0.2-5.1-0.6-7.1c-0.8-2-2.2-3.7-4.2-5
				c-4.2-2.6-11-3.4-20.3-2.5c-20.2,2-51.5,12.2-93.2,30.3C625-57.7,552.4-35.7,490.1-27.3c-51.3,6.9-96.2,4.7-133.5-6.7
				c-65.1-19.8-89.2-61.2-98.3-76.8l-0.3-0.6c-15.1-25.8-33.4-39.6-54.6-40.9c-18.2-1.1-37.7,7.2-56.5,24
				c-17.1,15.3-32.3,36.7-42.8,60.1C93.4-44.4,88.5-20.5,90.4-1.1L90.4-1.1z"/>
			<path id="line_4_" class="st1" d="M259.6,259.3c-16.1,0-31.6-1-46.2-3.1C152,247.4,94.6,218,51.6,173.2
				C8.9,128.8-18.1,70.6-24.4,9.5h0l-0.2-2l0,0c-2.3-26.1,4.2-57.9,18.5-89.6c14.2-31.5,34.7-60.2,57.6-80.8
				c25.5-22.8,52-34.1,76.7-32.6c28.9,1.8,53.9,20.5,74.4,55.6l0.5,0.8C247-63.6,309.5-44.6,333-37.5c49.4,15,109,18,177.1,8.9
				c82.9-11.2,179.4-40.5,287-87.3c55.8-24.3,97.8-37.9,124.9-40.6c12.8-1.3,22.3,0,28.3,3.6c3.1,1.9,5.2,4.4,6.5,7.6
				c1.2,3,1.5,6.5,0.9,10.5c-1.1,7.4-5.2,16.7-12.3,27.5c-6.8,10.4-16.4,22.3-28.4,35.4c-24.1,26.1-57.6,56.1-96.8,86.7
				c-88.2,69-195.3,133.4-293.7,176.9c-57.6,25.4-112.3,44-162.7,55.1C326.6,255.1,291.7,259.3,259.6,259.3z M-22.5,8.8
				c6.1,60.9,32.9,118.8,75.5,163.1c42.7,44.4,99.7,73.6,160.6,82.3c43.6,6.2,94,3.1,149.8-9.2c50.2-11.1,104.8-29.5,162.3-54.9
				C624,146.6,730.9,82.2,819,13.4c39.1-30.6,72.5-60.5,96.5-86.5c11.9-12.9,21.4-24.7,28.2-35.1c6.9-10.6,10.9-19.6,11.9-26.7
				c0.5-3.7,0.3-6.9-0.8-9.5c-1.1-2.7-3-4.9-5.7-6.6c-5.6-3.5-14.7-4.6-27-3.4c-26.9,2.7-68.7,16.3-124.3,40.4
				C690.2-67.2,593.5-37.8,510.4-26.6c-68.4,9.2-128.2,6.2-178-8.9C245.7-62,213.5-117.2,201.4-138l-0.5-0.8
				c-20.1-34.5-44.6-52.8-72.8-54.6c-24.2-1.5-50.2,9.6-75.3,32.1c-22.8,20.4-43,48.9-57.1,80.1C-18.5-49.6-25-17.9-22.5,8
				L-22.5,8.8z"/>
			<path id="line_3_" class="st1" d="M217.7,330c-20.1,0-39.4-1.3-57.7-3.9c-38.9-5.5-76.2-17.5-111-35.5
				c-33.9-17.5-64.5-40.4-91-68c-26.5-27.6-48.1-59-64.2-93.5C-122.6,94-132.9,56.7-136.8,18l0,0l-0.2-2l0,0
				c-3-32.6,5.2-72.3,23.1-112C-96.2-135.2-70.7-171-42-196.7c31.7-28.5,64.8-42.5,95.6-40.6c35.9,2.2,67.1,25.5,92.5,69.2l0.6,1
				c55,94.4,133.2,118.2,162.7,127.2c61.9,18.8,136.4,22.6,221.6,11.1c103.7-14,224.4-50.7,358.9-109.1
				c69.7-30.3,122.2-47.4,156-50.7c15.9-1.6,27.6-0.1,35,4.5c3.7,2.3,6.4,5.4,7.9,9.2c1.4,3.7,1.8,8,1.1,12.9
				c-1.3,9.2-6.5,20.8-15.2,34.2c-8.5,13.1-20.5,27.9-35.5,44.1C1009-51,967.2-13.6,918.2,24.7c-110.2,86.2-244,166.8-367,221.1
				c-72,31.8-140.3,54.9-203.3,68.8C301.4,324.9,257.8,330,217.7,330z M-134.9,17.6c3.9,38.5,14.2,75.7,30.5,110.7
				c16,34.3,37.5,65.6,63.8,93c26.3,27.4,56.8,50.1,90.4,67.6c34.6,17.9,71.7,29.8,110.4,35.3c54.5,7.7,117.5,3.9,187.2-11.5
				c62.8-13.8,131-36.9,202.9-68.7C673.3,189.7,806.9,109.2,917,23.1c48.9-38.2,90.6-75.6,120.7-108.2
				c14.9-16.1,26.8-30.9,35.2-43.9c8.6-13.2,13.7-24.5,14.9-33.4c0.6-4.6,0.3-8.6-1-11.9c-1.3-3.4-3.7-6.2-7.1-8.3
				c-7-4.3-18.3-5.7-33.8-4.2c-33.6,3.3-85.9,20.3-155.4,50.5C756-77.6,635-40.8,531.2-26.8C445.7-15.3,370.9-19.1,308.7-38
				C200.3-71,160.1-140.1,144.9-166.1l-0.6-1c-25.1-43.1-55.7-66-90.9-68.2c-30.3-1.9-62.8,12-94.1,40.1
				c-28.4,25.5-53.8,61.1-71.4,100.1c-17.8,39.6-26,79.1-22.9,111.4L-134.9,17.6z"/>
			<path id="line_2_" class="st1" d="M175.3,401.7c-24.2,0-47.2-1.6-69.2-4.7C59.5,390.4,14.7,376-27,354.5
				c-40.6-21-77.3-48.5-109.1-81.5c-31.8-33-57.7-70.8-77-112.1c-19.8-42.4-32.2-87.6-36.9-134.4c-3.9-39.2,5.9-87.3,27.6-135.4
				c21.2-47.1,51.8-90,86.2-120.8c38-34.1,77.5-50.9,114.4-48.6c43,2.7,80.2,30.6,110.7,82.9l0.7,1.2c8.8,15.2,25.3,43.4,55.8,72.9
				c37.4,36.2,84.4,63,139.7,79.9C359.4-18.9,449-14.4,551.2-28.2C675.6-44.9,820.6-89,982-159.1c83.6-36.3,146.5-56.8,187.1-60.8
				c19-1.9,33-0.1,41.8,5.3c4.4,2.7,7.5,6.4,9.3,10.9c1.7,4.3,2.1,9.5,1.3,15.3c-1.6,11-7.7,24.8-18.2,40.9
				c-10.2,15.6-24.5,33.4-42.5,52.9c-36.1,39.1-86.3,84.1-145,130C883.4,138.8,722.9,235.5,575.3,300.7
				c-86.3,38.1-168.4,65.9-243.8,82.5C275.6,395.5,223.4,401.7,175.3,401.7z M-28.5-276.5c-34.4,0-71,16.6-106.4,48.3
				c-34.1,30.6-64.6,73.3-85.7,120.2c-21.5,47.7-31.2,95.4-27.4,134.3c4.6,46.5,17,91.5,36.7,133.7c19.2,41.2,45,78.7,76.6,111.6
				c31.6,32.9,68.1,60.2,108.5,81.1c41.5,21.5,86,35.7,132.4,42.3c65.4,9.3,141,4.7,224.6-13.8c75.3-16.6,157.2-44.3,243.4-82.4
				c147.5-65.2,307.8-161.8,439.9-265C1073.1-12,1123.2-56.9,1159.2-96c17.9-19.4,32.2-37.1,42.3-52.6
				c10.4-15.9,16.4-29.4,17.9-40.1c0.8-5.5,0.4-10.3-1.2-14.3c-1.6-4.1-4.5-7.4-8.5-9.9c-8.4-5.2-22-6.9-40.5-5
				c-40.3,4-103.1,24.4-186.5,60.7l-0.4-0.9l0.4,0.9C821.2-87.1,676.1-43,551.5-26.2c-102.6,13.8-192.4,9.3-266.9-13.4
				c-55.6-16.9-102.9-44-140.5-80.3c-30.7-29.7-47.2-58.1-56.1-73.4l-0.7-1.2c-30.1-51.7-66.9-79.2-109.1-81.9
				C-24.1-276.5-26.3-276.5-28.5-276.5z"/>
			<path id="line_1_" class="st1" d="M133.4,472.4c-28.2,0-55.1-1.8-80.7-5.5c-54.4-7.7-106.6-24.4-155.2-49.6
				c-47.3-24.5-90.1-56.5-127.1-95c-37-38.5-67.2-82.5-89.8-130.7c-23.1-49.5-37.6-102.2-43-156.7c-4.5-45.7,6.9-101.7,32.1-157.8
				c24.8-54.9,60.4-104.9,100.4-140.9c44.2-39.7,90.3-59.3,133.2-56.6c23.9,1.5,46.6,9.9,67.5,25c22.5,16.2,43.2,40.3,61.4,71.6
				l0.8,1.4c10.3,17.7,29.5,50.7,65.1,85.2c43.6,42.2,98.5,73.6,163.1,93.3C348.2-17.5,452.7-12.3,572-28.4
				c145.2-19.6,314.3-71,502.6-152.8c97.5-42.4,170.9-66.2,218.2-70.9c22-2.2,38.4-0.1,48.5,6.2c5.1,3.1,8.7,7.4,10.7,12.5
				c2,5,2.5,10.9,1.5,17.7c-1.8,12.8-9,28.8-21.2,47.6c-11.9,18.2-28.6,39-49.6,61.7c-42.1,45.6-100.6,98.1-169.2,151.6
				c-72.1,56.4-154.3,113.1-237.6,164c-92.6,56.5-185.5,105.5-276.1,145.5c-100.7,44.5-196.4,76.9-284.4,96.3
				C250.4,465.2,189.4,472.4,133.4,472.4z M-104.3-318.5c-40.2,0-82.9,19.4-124.1,56.3c-39.8,35.7-75.3,85.5-100,140.2
				c-25.1,55.7-36.5,111.4-32,156.7c5.4,54.3,19.8,106.7,42.8,156c22.4,48,52.5,91.8,89.4,130.2c36.9,38.4,79.5,70.2,126.6,94.6
				C-53.1,440.7-1.1,457.3,53,465c76.3,10.8,164.5,5.4,262.1-16.1c87.9-19.4,183.4-51.7,284-96.1c172-76,359.1-188.7,513.3-309.2
				c68.4-53.5,126.9-105.9,168.9-151.4c20.9-22.6,37.5-43.3,49.4-61.4c12.1-18.5,19.1-34.3,20.9-46.8c0.9-6.4,0.4-12-1.4-16.7
				c-1.9-4.8-5.2-8.7-9.9-11.6c-9.8-6-25.7-8-47.3-5.9c-47.1,4.7-120.3,28.5-217.6,70.8l-0.4-0.9l0.4,0.9
				C886.9-97.4,717.7-46,572.3-26.4C452.6-10.3,347.9-15.5,260.8-42c-64.9-19.7-120-51.3-163.9-93.7c-35.8-34.6-55.1-67.8-65.5-85.6
				l-0.8-1.4c-35.2-60.3-78-92.5-127.3-95.5C-99.2-318.4-101.8-318.5-104.3-318.5z"/>
			<path id="line" class="st1" d="M91,544.1c-32.2,0-62.9-2.1-92.2-6.2c-62.1-8.8-121.7-27.9-177.2-56.6
				c-54.1-28-102.9-64.5-145.2-108.5c-42.3-44-76.8-94.2-102.5-149.3c-26.4-56.5-42.9-116.7-49.1-179
				c-5.2-52.2,7.9-116.2,36.7-180.1c28.3-62.7,69-119.8,114.7-160.9c50.5-45.3,103.1-67.7,152-64.6c27.2,1.7,53.1,11.3,77,28.5
				c25.7,18.5,49.3,46,70.1,81.7l0.9,1.6c11.8,20.3,33.8,58,74.5,97.4C100.6-103.8,163.4-68,237.2-45.5
				c61.7,18.8,131.3,28.2,207.9,28.2c46.5,0,95.6-3.5,147.2-10.4c166-22.4,359.3-81.1,574.5-174.7c111.4-48.4,195.3-75.7,249.2-81
				c25.1-2.5,43.7-0.1,55.3,7c5.8,3.6,9.8,8.3,12.1,14.2c2.2,5.7,2.8,12.4,1.7,20.1c-2.1,14.6-10.2,32.9-24.2,54.3
				c-13.6,20.8-32.6,44.5-56.6,70.5c-48.1,52.1-115,112.1-193.3,173.3c-82.4,64.4-176.3,129.2-271.6,187.4
				c-105.8,64.6-212,120.6-315.5,166.3c-115.1,50.8-224.4,87.8-325,110C224.6,535.8,155,544.1,91,544.1z M-180.7-359.5
				c-45.9,0-94.7,22.1-141.8,64.4c-45.5,40.8-86.1,97.7-114.2,160.2c-28.7,63.6-41.7,127.3-36.5,179.1c6.1,62,22.6,122,48.9,178.3
				c25.7,54.9,60,104.9,102.2,148.8c42.1,43.9,90.8,80.2,144.7,108.2c55.3,28.6,114.7,47.6,176.6,56.4
				c87.2,12.4,187.9,6.2,299.5-18.3c100.4-22.1,209.7-59.1,324.6-109.9C726.6,362,832.7,306.1,938.4,241.5
				c95.2-58.1,189-122.8,271.4-187.2c78.2-61.1,145-121,193.1-173c23.9-25.9,42.9-49.5,56.4-70.2c13.8-21.2,21.9-39.1,23.9-53.4
				c1-7.3,0.5-13.7-1.6-19.1c-2.1-5.4-5.9-9.9-11.3-13.2c-11.2-6.9-29.3-9.2-54-6.7c-53.8,5.3-137.4,32.5-248.7,80.9l-0.4-0.9
				l0.4,0.9c-215.4,93.6-408.9,152.5-575,174.8C455.8-7.3,336.1-13.3,236.6-43.6C162.5-66.1,99.4-102.2,49.3-150.7
				c-40.9-39.6-63-77.5-74.8-97.8l-0.9-1.6c-20.7-35.5-44.1-62.8-69.5-81.1c-23.6-17-49.1-26.4-76-28.1
				C-174.8-359.4-177.8-359.5-180.7-359.5z"/>
		</g>
	</g>
</g>
</svg>
