<?xml version="1.0" encoding="utf-8"?>
<!-- Generator: Adobe Illustrator 24.1.2, SVG Export Plug-In . SVG Version: 6.00 Build 0)  -->
<svg version="1.1" id="background-03_1_" xmlns="http://www.w3.org/2000/svg" xmlns:xlink="http://www.w3.org/1999/xlink" x="0px"
	 y="0px" viewBox="0 0 1577.1 1060.3" style="enable-background:new 0 0 1577.1 1060.3;" xml:space="preserve">
<style type="text/css">
	.st0{clip-path:url(#mask_1_);}
	.st1{fill:#285134;}
	.st2{fill:#3A6B47;}
	.st3{fill:#4A7E58;}
	.st4{fill:#21442A;}
	.st5{fill:#99C2A6;}
	.st6{opacity:0.1;}
	.st7{fill:#FFFFFF;}
</style>
<g id="background">
	<defs>
		<rect id="mask" x="1219.8" y="-1519.1" width="1500" height="1000"/>
	</defs>
	<clipPath id="mask_1_">
		<use xlink:href="#mask"  style="overflow:visible;"/>
	</clipPath>
	<g id="background-03" class="st0">
		<rect id="base" x="1219.8" y="-1519.1" class="st1" width="1500" height="1000"/>
		<g id="shapes">
			<path id="shape" class="st2" d="M1219.8-1464.9c146.2,0,168.1,50.8,268.6,50.8c122.4,0,181.1,50.3,268.6,50.3
				s152-74.8,268.6-74.8c116.6,0,115.4,104.1,268.6,104.1c153.1,0,190.4,115.4,268.6,115.4c78.1,0,157.1-43.9,157.1-43.9
				s0-100.8,0-256.1h-1500C1219.8-1408.9,1219.8-1464.9,1219.8-1464.9z"/>
			<path id="shape_2" class="st2" d="M2719.8-519.1h-518c0,0,94-111,260-94.9c166,16.1,258-25.1,258-25.1V-519.1z"/>
			<path id="shape_3" class="st3" d="M1403.6-1410.9l-77.7,36.8c-99.5,47.2-216.1-0.9-260.3-107.4c-0.8-2-1.7-4.1-2.5-6.2l-3.4-9
				c-40.8-107.3,5.6-229.6,104.7-276c104.4-48.9,226.6-14.7,295.4,82.6l8.2,11.6c55,77.7,40.7,188.3-31.9,247.1
				C1426.1-1423.3,1415.2-1416.4,1403.6-1410.9z"/>
			<path id="shape_4" class="st3" d="M2860.4-375.8l-77.8,27.9c-99.6,35.8-216-0.2-260-80.3c-0.9-1.5-1.7-3.1-2.4-4.6l-3.4-6.8
				c-40.6-80.7,6.2-173,105.4-208.2c104.5-37.1,226.6-11.6,295.2,61.5l8.2,8.7c54.8,58.4,40.3,141.8-32.5,186.2
				C2883-385.2,2872-379.9,2860.4-375.8z"/>
		</g>
		<g id="lines">
			<path id="line_14_" class="st4" d="M2762.2-1332c-5.4,0-9.9-1.9-13.9-5.9c-3.6-3.5-6.7-8.7-10-16.2c-2.2-5.1-4.3-10.7-6.5-16.7
				l0-0.1c-0.6-1.7-1.3-3.5-1.9-5.2c-2.8-7.6-5.9-15.7-10-23.3c-9.5-18.2-21.4-28.6-37.5-32.7c-19-4.9-45.9-6.1-74.1-6.8
				c-4-0.1-8-0.2-12.1-0.3l-0.5,0c-25.8-0.7-55-1.4-83.7-4.3c-38.7-3.9-70.1-11.1-95.9-21.9c-32.4-13.6-56.4-32.8-73.2-58.8
				l-0.2-0.2c-34.2-52.5-46.7-115.7-34.2-173.5c5.6-26,16-50.1,30.9-71.7c15.6-22.6,35.8-41.9,60-57.3l0.1-0.1
				c50.1-32.2,112.4-48.7,180.2-47.8c64.2,0.9,128.4,17.8,180.9,47.7c51.8,29.9,91.4,60.9,116.1,115.2
				c25.3,56.1,33.2,121.9,22.3,185.3v0.3l-0.1,0.1c-8.6,55.8-34.4,107.2-78.7,157.1c-13.4,12.9-24.5,22.1-34.2,28.2
				c-9,5.7-16.5,8.7-22.9,8.9C2762.9-1332.1,2762.6-1332,2762.2-1332z M2344.8-1525.2c39.2,60.2,114.3,74.2,167.5,79.6
				c28.6,2.9,57.8,3.6,83.5,4.3l0.5,0c4.1,0.1,8.1,0.2,12.1,0.3c28.3,0.8,55.4,1.9,74.5,6.9c16.6,4.3,28.9,15.1,38.7,33.8
				c4.1,7.8,7.4,16.3,10.1,23.6c0.6,1.8,1.3,3.5,1.9,5.2l0,0.1c2.2,5.9,4.2,11.5,6.4,16.6c3.2,7.3,6.2,12.2,9.6,15.6
				c3.8,3.8,8.2,5.5,13.4,5.3c6-0.3,13.2-3.1,21.9-8.6c9.6-6.1,20.6-15.2,33.8-27.9c44.1-49.6,69.7-100.8,78.2-156.4l0.1-0.4
				c10.8-63,2.9-128.2-22.2-183.9c-24.5-53.8-63.8-84.6-115.3-114.3c-52.1-29.7-116-46.6-179.9-47.5
				c-67.5-0.9-129.5,15.5-179.2,47.5l-0.1,0.1c-23.9,15.2-43.9,34.3-59.3,56.7c-14.7,21.4-25,45.2-30.6,71
				c-12.4,57.4,0,120.1,34.1,172.3L2344.8-1525.2z"/>
			<path id="line_13_" class="st4" d="M2785.8-1422.5c-4.5,0-8.3-1.6-11.6-4.9c-2.9-2.9-5.6-7.2-8.4-13.5c-1.8-4.1-3.5-8.6-5.4-14
				l-0.6-1.8c-0.3-0.9-0.6-1.7-0.9-2.6c-2.3-6.3-5-13.1-8.3-19.5c-7.9-15.1-17.9-23.8-31.2-27.3c-15.8-4.1-38.2-5.1-61.7-5.7
				c-3.2-0.1-6.4-0.2-9.6-0.3l-0.9,0c-21.5-0.6-45.9-1.2-69.7-3.6c-32.2-3.2-58.4-9.2-79.9-18.3c-27-11.3-47-27.4-61-49l-0.2-0.2
				c-28.5-43.8-38.9-96.4-28.5-144.6c9.6-44.4,36.5-82.6,75.7-107.5l0.1-0.1c41.7-26.8,93.6-40.6,150.2-39.8
				c53.5,0.7,107,14.9,150.7,39.8c43.2,24.9,76.2,50.7,96.8,96c21.1,46.7,27.7,101.6,18.6,154.4l0,0.1
				c-7.1,46.6-28.6,89.6-65.6,131.2c-11.1,10.7-20.4,18.4-28.5,23.5c-7.5,4.8-13.8,7.2-19.1,7.4
				C2786.4-1422.6,2786.1-1422.5,2785.8-1422.5z M2438.3-1583.7c32.6,50,95.1,61.7,139.3,66.1c23.8,2.4,48.1,3,69.5,3.6l0.9,0
				c3.3,0.1,6.5,0.2,9.6,0.3c23.6,0.7,46.2,1.6,62.2,5.8c13.9,3.6,24.3,12.6,32.5,28.3c3.4,6.5,6.1,13.3,8.4,19.7
				c0.3,0.9,0.6,1.7,0.9,2.6l0.6,1.8c1.9,5.4,3.6,9.8,5.4,13.9c2.7,6.1,5.2,10.1,7.9,12.9c3.2,3.1,6.6,4.5,10.9,4.3
				c4.9-0.2,11-2.6,18.1-7.1c7.9-5,17.1-12.6,28.1-23.2c36.7-41.3,58-83.8,65.1-130l0-0.1c9-52.5,2.5-106.9-18.4-153.3
				c-20.4-44.8-53.1-70.4-95.9-95.1c-43.4-24.7-96.6-38.8-149.7-39.5c-56.2-0.8-107.7,12.9-149.1,39.5l-0.1,0.1
				c-38.7,24.6-65.3,62.3-74.8,106.2c-10.3,47.7,0,99.9,28.3,143.3L2438.3-1583.7z"/>
			<path id="line_12_" class="st4" d="M2738.6-1241.5c-6.2,0-11.6-2.3-16.2-6.9c-4.2-4.1-7.9-10.1-11.7-18.9c-2.6-6-5-12.6-7.6-19.6
				c-0.7-2-1.5-4-2.2-6.1c-3.3-8.9-6.9-18.3-11.6-27.2c-11.1-21.2-25-33.3-43.7-38.2c-22.1-5.8-53.5-7.1-86.4-8
				c-4.4-0.1-8.8-0.2-13.3-0.4l-1.4,0c-30.1-0.8-64.2-1.6-97.6-5c-45.1-4.5-81.7-12.9-111.9-25.6c-37.8-15.9-65.7-38.3-85.4-68.6
				l-0.2-0.2c-40-61.3-54.5-135.1-39.9-202.5c6.6-30.3,18.7-58.5,36-83.7c18.2-26.3,41.6-48.8,69.8-66.7l0.2-0.1
				c58.4-37.6,131.1-56.9,210.4-55.8c74.9,1,149.9,20.8,211,55.7c60.4,34.8,106.6,71,135.5,134.4c29.5,65.4,38.7,142.2,26,216.3
				l-0.1,0.4c-10,65.2-40.1,125.1-91.8,183.3c-15.6,15-28.6,25.8-39.9,32.9c-10.5,6.7-19.3,10.1-26.7,10.4
				C2739.4-1241.6,2739-1241.5,2738.6-1241.5z M2251.4-1466.8c45.8,70.4,133.6,86.8,195.6,93c33.3,3.3,67.4,4.2,97.5,5l1.4,0
				c4.5,0.1,8.9,0.2,13.3,0.4c33,0.9,64.5,2.2,86.9,8.1c19.3,5,33.5,17.5,45,39.2c4.7,9,8.4,18.5,11.7,27.5c0.8,2,1.5,4.1,2.2,6.1
				c2.5,6.9,4.9,13.5,7.5,19.5c3.7,8.5,7.3,14.3,11.3,18.3c4.5,4.5,9.7,6.5,15.9,6.3c7.1-0.3,15.5-3.6,25.7-10.1
				c11.1-7.1,24.1-17.8,39.5-32.6c51.5-57.9,81.4-117.6,91.4-182.5v-0.4l0.1-0.1c12.6-73.5,3.4-149.8-25.9-214.7
				c-28.6-62.9-74.5-98.8-134.6-133.5c-60.9-34.7-135.5-54.4-210-55.4c-78.7-1.1-150.8,18-208.8,55.2v0l-0.5,0.3
				c-28,17.8-51.4,40.1-69.4,66.3c-17.2,24.9-29.2,52.9-35.7,82.9c-14.5,67,0,140.3,39.8,201.2L2251.4-1466.8z"/>
			<path id="line_11_" class="st4" d="M2691.4-1060.5c-8,0-14.9-2.9-20.9-8.8c-5.3-5.3-10.1-13-15.1-24.3
				c-3.4-7.9-6.6-16.7-9.8-25.2l-0.5-1.4c-0.8-2.1-1.6-4.3-2.4-6.4c-4.2-11.5-9-23.7-15-35c-14.3-27.2-32.2-42.9-56.2-49.1
				c-28.5-7.4-68.8-9.1-111.1-10.3c-6.2-0.2-12.5-0.3-18.9-0.5c-38.7-1-82.5-2.1-125.5-6.4c-58-5.8-105.1-16.6-143.9-32.9
				c-48.6-20.4-84.5-49.3-109.8-88.2c-25.9-39.7-43.6-82.8-52.4-128.2c-8.7-44.8-8.4-89.4,0.9-132.5c8.4-39,24-75.2,46.3-107.6
				c23.4-34,53.7-62.9,90-85.9c38.1-24.5,81.4-43.1,128.6-55.3c45-11.6,92.7-17.1,141.8-16.4c96.3,1.3,192.7,26.8,271.3,71.6
				c77.7,44.8,137.1,91.3,174.2,172.8c37.9,84.1,49.8,182.8,33.4,278l0,0.1c-12.8,84-51.5,161.2-118.2,236.2
				c-20,19.3-36.8,33.1-51.3,42.3c-13.5,8.6-24.8,13-34.4,13.4C2692.4-1060.5,2691.9-1060.5,2691.4-1060.5z M2409.9-1873
				c-46.1,0-90.9,5.5-133.3,16.4c-47,12.1-90.1,30.6-128.1,55c-36.1,22.9-66.2,51.6-89.4,85.3c-22.2,32.1-37.6,68.1-46,106.8
				c-9.3,42.8-9.6,87.2-0.9,131.7c8.8,45.1,26.3,88,52.1,127.4c59,91,172.2,112.1,252.2,120.2c42.9,4.3,86.7,5.4,125.3,6.4
				c6.4,0.2,12.7,0.3,18.9,0.5c42.4,1.2,82.9,2.9,111.6,10.3c24.6,6.4,42.9,22.3,57.4,50.1c6,11.5,10.8,23.7,15.1,35.3
				c0.8,2.2,1.6,4.3,2.4,6.4l0.5,1.4c3.1,8.5,6.3,17.3,9.7,25.1c4.8,11.1,9.5,18.6,14.6,23.7c6,5.9,12.8,8.6,20.8,8.2
				c9.3-0.4,20.2-4.7,33.4-13.1c14.4-9.1,31-22.9,50.9-42c66.3-74.6,104.8-151.5,117.6-235l0-0.1c16.3-94.8,4.5-193.1-33.2-276.9
				c-36.9-81-96-127.3-173.3-171.9c-78.3-44.7-174.3-70-270.3-71.3C2415.2-1872.9,2412.5-1873,2409.9-1873z"/>
			<path id="line_10_" class="st4" d="M2644.3-879.5c-9.8,0-18.2-3.5-25.5-10.8c-6.5-6.4-12.4-15.9-18.4-29.7
				c-4.1-9.4-7.9-19.8-11.9-30.8c-1.1-3.1-2.3-6.3-3.5-9.5c-5.2-14-10.9-28.8-18.3-42.8c-17.5-33.3-39.3-52.4-68.7-60
				c-34.8-9.1-84.1-11.1-135.8-12.6c-7.3-0.2-14.8-0.4-22.3-0.6l-0.7,0c-47.3-1.2-100.8-2.6-153.4-7.9
				c-70.9-7.1-128.4-20.3-175.9-40.2c-59.4-25-103.3-60.2-134.1-107.8c-31.7-48.5-53.2-101.2-64.1-156.6
				c-10.7-54.8-10.3-109.3,1.1-162c10.3-47.7,29.4-91.9,56.6-131.5c28.6-41.5,65.6-76.8,110-105c46.6-30,99.5-52.7,157.2-67.6
				c55-14.2,113.3-20.9,173.3-20.1c117.7,1.6,235.5,32.7,331.6,87.5c95,54.8,167.5,111.6,212.9,211.2
				c46.4,102.8,60.8,223.5,40.8,339.8l0,0.1c-15.7,102.6-62.9,197.1-144.4,288.7c-24.5,23.6-45,40.5-62.7,51.7
				c-16.5,10.5-30.3,15.9-42,16.4C2645.4-879.5,2644.8-879.5,2644.3-879.5z M2300.1-1872.9c-56.4,0-111.2,6.7-163,20.1
				c-57.5,14.8-110.2,37.4-156.6,67.3c-44.2,28-81,63.2-109.4,104.4c-27.1,39.3-46.1,83.3-56.3,130.7
				c-11.3,52.4-11.7,106.6-1.1,161.2c10.8,55.2,32.2,107.6,63.8,155.9c30.6,47.2,74.2,82.2,133.2,107c47.3,19.9,104.6,33,175.3,40
				c52.5,5.3,106,6.6,153.2,7.8l0.7,0c7.6,0.2,15,0.4,22.3,0.6c51.9,1.4,101.3,3.5,136.3,12.6c29.9,7.8,52.2,27.2,69.9,61
				c7.4,14.1,13.2,29,18.4,43c1.2,3.2,2.4,6.4,3.5,9.5c4,11,7.8,21.3,11.9,30.7c5.9,13.6,11.6,22.8,18,29.1
				c7.4,7.3,15.8,10.6,25.8,10.2c11.4-0.5,24.8-5.7,41-16c17.6-11.2,38-28,62.3-51.4c81.2-91.2,128.2-185.3,143.9-287.5l0-0.1
				c20-115.9,5.5-236.2-40.6-338.7c-45.1-99.1-117.4-155.7-212-210.3c-95.8-54.6-213.2-85.6-330.6-87.2
				C2306.6-1872.9,2303.3-1872.9,2300.1-1872.9z"/>
			<path id="line_9_" class="st4" d="M2597.1-698.5c-11.6,0-21.5-4.2-30.2-12.8c-7.7-7.6-14.6-18.7-21.8-35.1
				c-4.8-11-9.2-23.1-13.9-35.9l-0.2-0.5c-1.3-3.7-2.7-7.5-4.1-11.3c-6.1-16.5-12.9-34-21.6-50.6c-20.7-39.4-46.4-61.9-81.1-71
				c-41.1-10.7-99.4-13.1-160.5-14.8c-8.9-0.2-18-0.5-27.3-0.7c-55.9-1.4-119.2-3.1-181.3-9.3c-83.8-8.4-151.8-23.9-207.9-47.5
				c-70.2-29.5-122.1-71.2-158.5-127.4c-37.5-57.3-62.9-119.6-75.7-185.1c-12.6-64.8-12.2-129.2,1.3-191.4
				c12.2-56.4,34.7-108.6,66.9-155.3c33.8-49,77.5-90.8,130-124.1c55.1-35.4,117.6-62.3,185.8-79.9c65-16.7,133.9-24.7,204.9-23.7
				c139.1,1.9,278.3,38.6,391.9,103.4c112.2,64.7,198,131.9,251.6,249.6c54.8,121.5,71.9,264.1,48.2,401.5v0.4l-0.1,0.1
				c-18.6,121.2-74.4,232.6-170.6,340.8c-28.9,27.8-53.1,47.8-74,61.1c-19.5,12.4-35.8,18.7-49.7,19.3
				C2598.4-698.5,2597.8-698.5,2597.1-698.5z M2190.3-1872.9c-66.7,0-131.5,8-192.8,23.8c-68,17.5-130.3,44.3-185.2,79.6
				c-52.2,33.1-95.8,74.7-129.4,123.5c-32.1,46.5-54.5,98.5-66.6,154.6c-13.4,62-13.9,126.1-1.3,190.6
				c12.7,65.3,38.1,127.3,75.4,184.4c36.2,55.9,87.8,97.3,157.6,126.6c55.9,23.5,123.7,39,207.3,47.4c62,6.2,125.3,7.8,181.1,9.3
				c9.2,0.2,18.3,0.5,27.3,0.7c61.3,1.7,119.7,4.1,161,14.9c35.3,9.2,61.5,32.1,82.4,72c8.7,16.6,15.6,34.3,21.7,50.8
				c1.4,3.8,2.8,7.6,4.1,11.3l0.2,0.5c4.7,12.8,9.1,24.9,13.9,35.8c7,16.1,13.8,27,21.3,34.4c8.8,8.7,18.8,12.7,30.7,12.2
				c13.5-0.6,29.4-6.8,48.7-19c20.8-13.3,44.9-33.2,73.7-60.8c96-107.9,151.7-219.2,170.2-340.1l0.1-0.4
				c23.5-137,6.5-279-48.1-400.1c-53.4-117.2-138.8-184.2-250.7-248.7c-113.3-64.6-252.1-101.3-390.9-103.2
				C2198-1872.9,2194.2-1872.9,2190.3-1872.9z"/>
			<path id="line_8_" class="st4" d="M2549.9-517.5c-13.4,0-24.8-4.8-34.8-14.7c-8.9-8.8-16.9-21.6-25.1-40.5
				c-5.7-12.9-10.8-27.1-16.3-42l-1.6-4.4c-1-2.9-2.1-5.7-3.2-8.6c-7.1-19.1-15-39.4-24.9-58.4c-23.9-45.4-53.6-71.4-93.6-81.9
				c-47.5-12.4-114.7-15.2-185.2-17.1c-10.3-0.3-20.8-0.6-31.5-0.8c-64.5-1.7-137.6-3.5-209.2-10.7c-96.7-9.7-175.1-27.6-239.8-54.8
				c-38.4-16.1-72.7-35.9-102.1-58.9c-32-25-59.2-54.6-80.8-88c-43.2-66.1-72.6-138-87.3-213.6c-14.6-74.7-14.1-149,1.5-220.9
				c14.1-65,40.1-125.3,77.2-179.2c39-56.6,89.5-104.7,150-143.1l0,0c63.6-40.9,135.7-71.9,214.4-92.1
				c75-19.3,154.5-28.5,236.4-27.4c160.5,2.2,321.1,44.6,452.1,119.3c129.5,74.7,228.4,152.2,290.3,288
				c63.2,140.2,83,304.8,55.6,463.4l-0.1,0.4c-11.1,72.5-34.5,143.5-69.5,211.2c-31.9,61.7-74.8,123-127.4,182.1
				c-33.4,32.1-61.3,55.2-85.4,70.5c-22.5,14.3-41.3,21.6-57.3,22.3C2551.5-517.5,2550.7-517.5,2549.9-517.5z M1644.3-1753.6
				L1644.3-1753.6c-60.3,38.3-110.6,86.3-149.5,142.6c-37,53.7-62.9,113.8-76.9,178.5c-15.5,71.6-16,145.6-1.5,220.1
				c14.7,75.4,44,147,87.1,212.9c21.6,33.2,48.6,62.7,80.4,87.6c29.2,22.8,63.4,42.6,101.6,58.6c64.5,27.1,142.8,45,239.3,54.7
				c71.5,7.2,144.5,9,209,10.7c10.7,0.3,21.2,0.5,31.5,0.8c70.7,2,138,4.8,185.7,17.2c40.6,10.6,70.8,36.9,94.9,82.9
				c10,19.1,17.9,39.4,25,58.6c1.1,2.9,2.1,5.8,3.2,8.6l1.6,4.4c5.4,14.9,10.6,29,16.2,41.9c8.1,18.6,16,31.3,24.7,39.8
				c10.2,10.1,21.9,14.7,35.7,14.1c15.7-0.7,34.1-7.9,56.3-22c24-15.3,51.9-38.3,85.1-70.2c52.4-58.9,95.2-120,127-181.6
				c35-67.6,58.3-138.5,69.4-210.9v-0.4l0.1-0.1c27.2-158.1,7.5-322.1-55.6-461.9c-61.6-135.3-160.3-212.6-289.4-287.1
				c-130.7-74.6-291-116.9-451.2-119.1c-81.6-1.1-161,8.1-235.8,27.3C1779.6-1825.3,1707.6-1794.4,1644.3-1753.6z"/>
			<path id="line_7_" class="st4" d="M2715-1151c-7.1,0-13.2-2.6-18.6-7.9c-4.7-4.7-9-11.5-13.4-21.6c-2.9-6.7-5.6-14-8.5-21.8
				l-0.3-0.9c-0.8-2.2-1.6-4.4-2.4-6.6c-3.8-10.2-8-21-13.3-31.1c-12.7-24.2-28.6-38.1-49.9-43.7c-25.3-6.6-61.2-8.1-98.8-9.1
				c-5.1-0.1-10.4-0.3-15.7-0.4l-1.1,0c-34.4-0.9-73.3-1.9-111.5-5.7c-51.6-5.2-93.4-14.7-127.9-29.2
				c-43.2-18.2-75.1-43.8-97.6-78.4c-23-35.3-38.7-73.6-46.6-113.9c-7.8-39.8-7.5-79.5,0.8-117.8c7.5-34.7,21.4-66.8,41.2-95.6
				c20.8-30.2,47.7-55.9,80-76.4l0.1-0.1c66.7-42.9,149.8-64.9,240.3-63.7c85.6,1.2,171.3,23.8,241.1,63.6
				c69.1,39.8,121.8,81.2,154.8,153.6c33.7,74.8,44.2,162.5,29.7,247.1l0,0.1c-11.4,74.6-45.8,143.3-105,209.9
				c-17.8,17.2-32.7,29.4-45.6,37.6c-12,7.6-22,11.5-30.6,11.9C2715.9-1151.1,2715.5-1151,2715-1151z M2232.4-1809.4
				c-32,20.3-58.7,45.8-79.3,75.7c-19.7,28.5-33.4,60.5-40.9,94.9c-8.2,38-8.5,77.4-0.8,117c7.8,40.1,23.4,78.2,46.3,113.2
				c52.4,80.8,152.9,99.6,224,106.7c38.1,3.8,77.1,4.8,111.4,5.7l1.1,0c5.3,0.1,10.5,0.3,15.7,0.4c37.7,1,73.7,2.5,99.2,9.2
				c21.9,5.7,38.2,19.9,51.2,44.7c5.4,10.2,9.6,21.1,13.4,31.4c0.8,2.2,1.6,4.4,2.4,6.6l0.3,0.9c2.8,7.7,5.5,15.1,8.4,21.7
				c4.3,9.8,8.4,16.5,13,21c5.2,5.2,11.2,7.6,18.3,7.3c8.2-0.3,17.9-4.1,29.6-11.6c12.8-8.1,27.5-20.3,45.2-37.3
				c58.9-66.2,93.1-134.6,104.5-208.8l0-0.1c14.5-84.2,4-171.5-29.5-246c-32.8-71.9-85.2-113.1-154-152.7
				c-69.6-39.7-154.9-62.2-240.2-63.4c-90.1-1.2-172.9,20.7-239.3,63.4L2232.4-1809.4z"/>
			<path id="line_6_" class="st4" d="M2667.9-970c-8.9,0-16.5-3.2-23.2-9.8c-5.9-5.8-11.2-14.4-16.7-27c-3.8-8.6-7.4-18.5-10.8-28
				l-1.2-3.2c-0.7-1.8-1.3-3.6-2-5.4c-4.7-12.7-10-26.2-16.6-38.9c-15.9-30.3-35.7-47.6-62.4-54.6c-31.6-8.2-76.5-10.1-123.5-11.4
				c-6.9-0.2-13.9-0.4-21-0.6c-43-1.1-91.7-2.4-139.4-7.1c-64.5-6.5-116.8-18.4-159.9-36.5c-54-22.7-93.9-54.7-121.9-98
				c-28.8-44.1-48.4-92-58.2-142.4c-9.7-49.8-9.4-99.4,1-147.2c9.4-43.4,26.7-83.6,51.5-119.5c26-37.7,59.6-69.8,100-95.4l0,0
				c42.4-27.3,90.5-47.9,142.9-61.4c50-12.9,103-19,157.6-18.3c107,1.5,214.1,29.7,301.4,79.6c86.3,49.8,152.3,101.5,193.5,192
				c42.1,93.5,55.3,203.2,37.1,308.9l0,0.1c-14.3,93.3-57.2,179.1-131.3,262.4c-22.2,21.4-40.9,36.8-57,47
				c-15,9.6-27.5,14.4-38.2,14.9C2668.9-970,2668.4-970,2667.9-970z M2064.5-1793.6L2064.5-1793.6c-40.2,25.5-73.6,57.4-99.5,94.9
				c-24.6,35.7-41.9,75.7-51.2,118.8c-10.3,47.6-10.6,96.9-1,146.4c9.8,50.1,29.3,97.8,57.9,141.7c27.8,42.9,67.4,74.7,121,97.2
				c43,18,95.1,30,159.3,36.4c47.7,4.8,96.3,6,139.2,7.1c7.1,0.2,14.1,0.4,21,0.6c47.2,1.3,92.1,3.2,123.9,11.5
				c27.3,7.1,47.5,24.8,63.7,55.6c6.7,12.8,12,26.4,16.7,39.1c0.7,1.8,1.3,3.6,2,5.4l1.2,3.2c3.5,9.5,7,19.3,10.8,27.9
				c5.4,12.3,10.6,20.7,16.3,26.4c6.7,6.6,14.3,9.6,23.3,9.2c10.3-0.4,22.5-5.2,37.2-14.6c16-10.2,34.5-25.5,56.6-46.7
				c73.7-82.9,116.5-168.4,130.8-261.3l0-0.1c18.2-105.3,5-214.6-36.9-307.8c-41-90-106.7-141.5-192.7-191.1
				c-87.1-49.7-193.8-77.8-300.5-79.3c-54.3-0.7-107.2,5.4-157.1,18.2C2154.6-1841.3,2106.7-1820.7,2064.5-1793.6z"/>
			<path id="line_5_" class="st4" d="M2620.7-789c-10.7,0-19.8-3.9-27.8-11.8c-7.1-7-13.5-17.3-20.1-32.4
				c-4.5-10.2-8.6-21.4-12.9-33.3l-0.1-0.3c-1.2-3.4-2.5-6.9-3.8-10.4c-5.6-15.3-11.9-31.5-19.9-46.7
				c-19.1-36.3-42.9-57.1-74.9-65.5c-38-9.9-91.8-12.1-148.2-13.7c-8.3-0.2-16.7-0.4-25.2-0.7c-51.6-1.3-110-2.8-167.3-8.6
				c-77.3-7.8-140.1-22.1-191.9-43.9c-64.8-27.2-112.7-65.7-146.3-117.5l0,0c-34.6-52.9-58.1-110.4-69.9-170.9
				c-11.7-59.8-11.3-119.2,1.2-176.7c11.3-52,32-100.3,61.8-143.4c31.2-45.3,71.6-83.8,120-114.5c50.8-32.7,108.6-57.5,171.5-73.7
				c60-15.4,123.6-22.8,189.1-21.9c128.4,1.8,256.9,35.7,361.7,95.5c103.6,59.7,182.8,121.8,232.2,230.4
				c50.6,112.2,66.4,243.8,44.5,370.7l0,0.1c-17.1,112-68.7,215-157.6,314.9c-26.7,25.7-49,44.1-68.3,56.4
				c-18,11.5-33,17.3-45.8,17.8C2621.9-789,2621.3-789,2620.7-789z M1783.8-1174.9L1783.8-1174.9c33.5,51.6,81,89.8,145.5,116.9
				c51.6,21.7,114.2,36,191.3,43.7c57.2,5.7,115.6,7.2,167.2,8.6c8.5,0.2,16.9,0.4,25.2,0.7c56.6,1.6,110.5,3.8,148.6,13.8
				c32.6,8.5,56.8,29.6,76.2,66.5c8.1,15.3,14.4,31.6,20.1,46.9c1.3,3.5,2.6,7,3.8,10.4l0.1,0.3c4.3,11.9,8.4,23.1,12.8,33.2
				c6.5,14.8,12.7,24.9,19.6,31.8c8.1,8,17.3,11.6,28.3,11.2c12.5-0.5,27.1-6.3,44.9-17.5c19.2-12.2,41.5-30.6,68-56.1
				c88.6-99.6,139.9-202.2,157-313.7l0-0.1c21.8-126.5,6.1-257.7-44.4-369.6c-49.2-108.1-128.1-170-231.4-229.5
				c-104.5-59.6-232.7-93.4-360.7-95.2c-65.3-0.9-128.7,6.5-188.6,21.8c-62.8,16.1-120.3,40.9-170.9,73.5
				c-48.2,30.6-88.4,68.9-119.4,114c-29.6,42.9-50.3,90.9-61.5,142.7c-12.4,57.2-12.8,116.4-1.2,175.9
				C1726-1284.8,1749.4-1227.6,1783.8-1174.9z"/>
			<path id="line_4_" class="st4" d="M2573.5-608c-12.5,0-23.1-4.5-32.5-13.8c-8.3-8.2-15.7-20.2-23.4-37.8
				c-5.3-12-10.1-25.2-15.2-39.2l-0.9-2.6c-1.2-3.2-2.3-6.3-3.5-9.5c-6.6-17.9-14-36.8-23.3-54.5c-22.3-42.4-50-66.7-87.4-76.4
				c-44.3-11.5-107-14.1-172.9-16c-9.5-0.3-19.2-0.5-29-0.8l-0.4,0c-60.2-1.5-128.4-3.3-195.2-10c-90.2-9-163.5-25.8-223.9-51.2
				c-35.8-15.1-67.9-33.6-95.3-55c-29.8-23.3-55.2-51-75.4-82.2c-40.3-61.7-67.8-128.8-81.5-199.4c-13.6-69.7-13.1-139.1,1.4-206.1
				c13.1-60.7,37.4-117,72.1-167.3c36.4-52.8,83.5-97.8,140-133.6c59.3-38.2,126.6-67.1,200.1-86c70-18,144.2-26.6,220.6-25.6
				c149.8,2.1,299.7,41.6,422,111.4c120.9,69.7,213.2,142.1,270.9,268.8c59,130.9,77.4,284.4,51.9,432.4v0.3l-0.1,0.1
				c-10.4,67.7-32.2,134-64.9,197.1c-29.8,57.6-69.8,114.8-118.9,169.9c-31.1,30-57.2,51.5-79.7,65.8c-21,13.4-38.5,20.2-53.5,20.8
				C2575-608,2574.2-608,2573.5-608z M2135.4-1872.9c-71.8,0-141.6,8.6-207.6,25.6c-73.2,18.8-140.4,47.7-199.5,85.7
				c-56.3,35.7-103.2,80.5-139.4,133.1c-34.5,50.1-58.7,106.2-71.8,166.6c-14.5,66.8-14.9,135.9-1.4,205.3
				c13.7,70.3,41,137.1,81.2,198.6c20.1,31,45.3,58.5,75,81.7c27.3,21.3,59.2,39.7,94.8,54.7c60.2,25.3,133.2,42,223.3,51
				c66.8,6.7,134.9,8.4,195.1,10l0.4,0c9.8,0.3,19.5,0.5,29,0.8c66,1.8,128.9,4.4,173.3,16c38,9.9,66.1,34.5,88.7,77.4
				c9.3,17.8,16.7,36.8,23.4,54.7c1.2,3.2,2.3,6.4,3.5,9.6l0.9,2.6c5.1,14,9.9,27.2,15.1,39.1c7.6,17.3,14.9,29.2,23,37.1
				c9.5,9.4,20.4,13.7,33.2,13.1c14.6-0.6,31.8-7.3,52.5-20.5c22.4-14.3,48.4-35.7,79.4-65.5c48.9-55,88.8-112,118.5-169.5
				c32.6-63.1,54.4-129.3,64.8-196.8l0.1-0.4c25.4-147.5,7-300.6-51.8-431c-57.5-126.3-149.6-198.4-270.1-267.9
				c-122-69.6-271.5-109.1-421-111.1C2143.7-1872.9,2139.6-1872.9,2135.4-1872.9z"/>
			<path id="line_3_" class="st4" d="M2526.3-427c-14.3,0-26.4-5.2-37.1-15.7c-9.5-9.4-18-23.1-26.8-43.2
				c-5.9-13.6-11.4-28.5-17.2-44.4l-0.2-0.4c-1.7-4.6-3.3-9.2-5.1-13.9c-7.5-20.4-16-42-26.6-62.3c-25.4-48.4-57.2-76.2-99.9-87.3
				c-50.6-13.2-122.3-16.2-197.6-18.3c-11-0.3-22.2-0.6-33.6-0.9c-68.8-1.8-146.7-3.8-223.1-11.4c-103.1-10.3-186.8-29.5-255.8-58.5
				c-40.9-17.2-77.6-38.3-108.9-62.8c-34.1-26.7-63.1-58.3-86.2-93.9c-46.1-70.5-77.4-147.2-93.2-227.8c-15.5-79.7-15-159,1.6-235.6
				c15-69.4,42.7-133.7,82.4-191.2c41.6-60.4,95.4-111.7,160-152.7c67.8-43.6,144.7-76.7,228.7-98.3c80-20.6,164.8-30.4,252.1-29.2
				c171.2,2.4,342.5,47.6,482.3,127.3c138.1,79.6,243.7,162.4,309.6,307.2c67.4,149.6,88.5,325.1,59.3,494.2l0,0.1
				c-11.8,77.5-36.8,153.4-74.2,225.7c-34.1,65.8-79.8,131.2-135.9,194.2c-35.5,34.2-65.3,58.8-91.1,75.2
				c-24,15.3-44,23.1-61.1,23.8C2528-427,2527.1-427,2526.3-427z M2025.7-1872.9c-82.1,0-161.9,9.8-237.4,29.2
				c-83.7,21.5-160.5,54.5-228.1,98c-64.3,40.8-118,92-159.4,152.2c-39.5,57.3-67.1,121.4-82.1,190.5
				c-16.5,76.4-17.1,155.4-1.6,234.8c15.7,80.4,46.9,156.8,92.9,227.1c23,35.5,51.9,66.9,85.8,93.4c31.2,24.4,67.6,45.4,108.4,62.6
				c68.8,28.9,152.3,48,255.3,58.3c76.3,7.7,154.2,9.6,222.9,11.4c11.4,0.3,22.6,0.6,33.6,0.9c75.4,2.1,147.2,5.1,198,18.3
				c43.3,11.3,75.4,39.4,101.1,88.3c10.7,20.4,19.2,42.1,26.7,62.5c1.7,4.7,3.4,9.3,5.1,13.9l0.2,0.4c5.8,15.8,11.2,30.8,17.1,44.3
				c8.7,19.9,17.1,33.4,26.3,42.5c10.9,10.8,23.4,15.7,38.2,15.1c16.7-0.7,36.4-8.4,60.1-23.5c25.7-16.3,55.4-40.9,90.8-74.9
				c55.9-62.9,101.5-128.1,135.5-193.7c37.3-72.1,62.2-147.8,74-225l0-0.1c29.1-168.8,8.1-343.9-59.2-493.1
				c-65.7-144.4-171-226.9-308.8-306.3c-139.5-79.6-310.4-124.7-481.3-127C2035.1-1872.8,2030.4-1872.9,2025.7-1872.9z"/>
			<path id="line_2_" class="st4" d="M2502.7-336.5c-15.2,0-28.1-5.5-39.5-16.7c-10.1-9.9-19.1-24.5-28.4-45.9
				c-6.3-14.5-12.1-30.4-18.3-47.3l-0.5-1.3c-1.7-4.5-3.3-9.1-5-13.7c-8-21.6-17-44.6-28.3-66.1c-27-51.5-60.7-81-106.1-92.8
				c-53.8-14-130-17.2-209.9-19.4c-11.7-0.3-23.6-0.6-35.7-0.9c-73.1-1.9-155.9-4-237-12.1c-109.6-11-198.5-31.3-271.8-62.1
				c-43.5-18.3-82.4-40.7-115.7-66.8c-36.2-28.3-67.1-61.9-91.6-99.8c-49-74.9-82.3-156.4-99-242.1c-16.5-84.7-15.9-168.9,1.7-250.3
				c16-73.7,45.4-142,87.5-203.1c44.2-64.1,101.4-118.7,170-162.2c72-46.3,153.8-81.5,243-104.4c85-21.9,175.1-32.3,267.9-31
				c181.9,2.5,363.9,50.5,512.4,135.2c146.8,84.6,258.9,172.5,329,326.4c71.6,158.9,94,345.4,63.1,525.1l0,0.1
				c-12.6,82.3-39.1,163-78.9,239.8c-36.2,69.9-84.8,139.3-144.3,206.3c-37.8,36.4-69.5,62.6-96.8,79.9
				c-25.5,16.2-46.8,24.5-64.9,25.3C2504.5-336.5,2503.6-336.5,2502.7-336.5z M1970.8-1872.9c-87.3,0-172,10.4-252.3,31.1
				c-89,22.9-170.5,57.9-242.4,104.2c-68.4,43.4-125.4,97.8-169.4,161.7c-42,60.9-71.3,129-87.2,202.4
				c-17.6,81.2-18.1,165.1-1.7,249.5c16.7,85.4,49.9,166.6,98.7,241.4c24.4,37.7,55.1,71.1,91.2,99.3
				c33.1,25.9,71.9,48.3,115.2,66.5c73.2,30.7,161.9,51,271.2,62c81.1,8.1,163.8,10.3,236.9,12.1c12.1,0.3,24,0.6,35.7,0.9
				c80.1,2.2,156.4,5.4,210.4,19.5c46,12,80.1,41.8,107.4,93.8c11.3,21.6,20.3,44.7,28.4,66.4c1.7,4.6,3.4,9.2,5,13.7l0.5,1.3
				c6.1,16.9,12,32.8,18.3,47.2c9.2,21.1,18.1,35.5,28,45.2c11.6,11.5,24.9,16.7,40.7,16.1c17.8-0.8,38.7-8.9,63.9-25
				c27.2-17.3,58.8-43.4,96.5-79.6c59.4-66.8,107.9-136.1,144-205.9c39.6-76.6,66.1-157,78.7-239.1l0-0.1
				c30.9-179.4,8.6-365.5-62.9-524c-69.9-153.4-181.7-241.1-328.2-325.5c-148.2-84.5-329.9-132.5-511.5-135
				C1980.8-1872.8,1975.8-1872.9,1970.8-1872.9z"/>
			<path id="line_1_" class="st4" d="M2455.5-155.5c-16.9,0-31.3-6.1-44-18.7c-11.3-11.1-21.4-27.4-31.8-51.3
				c-7.2-16.4-13.7-34.3-20.6-53.2l-0.4-1.1c-1.9-5.1-3.7-10.2-5.6-15.4c-8.9-24.2-18.9-49.8-31.6-73.9
				c-30.2-57.5-67.9-90.5-118.6-103.7c-60.1-15.7-145.3-19.2-234.6-21.7c-10.7-0.3-21.5-0.6-32.4-0.9l-7.8-0.2
				c-81.6-2.1-174-4.5-264.6-13.6c-122.5-12.3-221.8-35-303.8-69.4c-48.6-20.4-92.1-45.5-129.3-74.6
				c-40.5-31.7-74.9-69.2-102.4-111.5c-54.7-83.8-92-174.8-110.6-270.6c-18.4-94.6-17.8-188.8,1.9-279.8
				c17.8-82.4,50.7-158.8,97.8-227c49.4-71.7,113.3-132.7,190-181.3c80.5-51.8,171.9-91.1,271.5-116.7
				c95-24.4,195.7-36.1,299.4-34.7c203.3,2.8,406.7,56.5,572.7,151.2c93.9,54.1,160,100.9,214.5,151.8
				c65.8,61.5,116,131.2,153.2,213c80.1,177.6,105.1,386.1,70.5,586.9l0,0.1c-14.1,92-43.7,182.1-88.2,268
				c-40.4,78.2-94.7,155.7-161.3,230.6c-42.2,40.7-77.6,69.9-108.2,89.3c-28.6,18.2-52.3,27.4-72.6,28.2
				C2457.5-155.5,2456.5-155.5,2455.5-155.5z M1861-1872.8c-97.5,0-192.3,11.7-282,34.7c-99.5,25.6-190.6,64.8-271,116.4
				c-76.4,48.5-140.2,109.3-189.4,180.8c-46.9,68.1-79.7,144.2-97.5,226.3c-19.6,90.7-20.3,184.6-1.9,279
				c18.6,95.5,55.7,186.3,110.3,269.8c27.3,42.2,61.6,79.5,102,111c37,29,80.4,54,128.9,74.3c81.8,34.4,181,57,303.2,69.3
				c90.5,9.1,182.9,11.5,264.4,13.5l7.8,0.2c10.9,0.3,21.8,0.6,32.4,0.9c89.5,2.5,174.8,6,235.1,21.8
				c51.3,13.4,89.4,46.6,119.9,104.7c12.7,24.2,22.7,49.9,31.7,74.2c1.9,5.2,3.8,10.3,5.6,15.4l0.4,1.1
				c6.9,18.9,13.4,36.8,20.5,53.1c10.3,23.6,20.3,39.7,31.4,50.6c13,12.9,28,18.8,45.6,18c19.9-0.8,43.3-10,71.6-27.9
				c30.5-19.4,65.8-48.5,107.8-89c66.4-74.7,120.6-152.2,161-230.2c44.3-85.6,73.9-175.6,87.9-267.3l0-0.1
				c34.6-200.5,9.6-408.5-70.3-585.8c-37.1-81.6-87.1-151-152.8-212.4c-54.3-50.8-120.4-97.5-214.1-151.5
				c-165.7-94.5-368.7-148.1-571.8-150.9C1872.3-1872.8,1866.6-1872.8,1861-1872.8z"/>
			<path id="line" class="st4" d="M2479-246c-16,0-29.7-5.8-41.7-17.7c-10.7-10.5-20.2-26-30.1-48.6c-6.8-15.5-13-32.4-19.5-50.4
				c-1.9-5.1-3.8-10.4-5.7-15.6c-8.5-22.9-17.9-47.2-29.9-70c-28.6-54.5-64.3-85.7-112.4-98.2c-56.9-14.8-137.6-18.2-222.3-20.5
				c-12.4-0.3-25-0.7-37.8-1c-77.4-2-165-4.2-251-12.8c-116-11.6-210.2-33.1-287.8-65.8c-46.1-19.4-87.3-43.1-122.5-70.7
				c-38.4-30-71-65.6-97-105.7c-51.9-79.3-87.1-165.6-104.8-256.3c-17.5-89.7-16.9-178.8,1.8-265c16.9-78,48.1-150.4,92.7-215.1
				c46.8-67.9,107.4-125.7,180-171.8c76.3-49.1,162.8-86.3,257.3-110.6c90-23.2,185.4-34.2,283.6-32.9
				c192.6,2.7,385.3,53.5,542.6,143.2c88.9,51.3,151.6,95.6,203.2,143.8c62.4,58.3,109.9,124.3,145.2,201.8
				c75.9,168.3,99.6,365.7,66.8,556l0,0.1c-13.3,87.1-41.4,172.6-83.5,253.9c-38.3,74-89.7,147.5-152.8,218.5
				c-40,38.6-73.6,66.2-102.5,84.6c-27,17.2-49.5,25.9-68.8,26.8C2481-246,2480-246,2479-246z M1915.9-1872.9
				c-92.4,0-182.2,11.1-267.1,32.9c-94.2,24.2-180.6,61.4-256.7,110.3c-72.4,46-132.8,103.6-179.4,171.2
				c-44.4,64.5-75.5,136.6-92.4,214.4c-18.6,85.9-19.2,174.8-1.8,264.2c17.6,90.5,52.8,176.5,104.5,255.6
				c25.9,39.9,58.4,75.3,96.6,105.2c35.1,27.4,76.1,51.1,122,70.4c77.5,32.5,171.4,54,287.2,65.6c85.9,8.6,173.5,10.9,250.8,12.8
				c12.8,0.3,25.4,0.6,37.8,1c84.8,2.4,165.6,5.7,222.7,20.6c48.6,12.7,84.7,44.2,113.6,99.3c12,22.9,21.5,47.3,30,70.3
				c1.9,5.2,3.8,10.5,5.7,15.6c6.5,18,12.7,34.9,19.5,50.3c9.8,22.4,19.2,37.6,29.7,47.9c12.3,12.2,26.5,17.8,43.1,17.1
				c18.9-0.8,41-9.4,67.8-26.4c28.8-18.3,62.3-45.9,102.2-84.3c62.9-70.8,114.3-144.1,152.5-218c42-81.1,70-166.3,83.3-253.2l0-0.1
				c32.8-189.9,9.1-387-66.6-554.9c-35.2-77.3-82.5-143.1-144.7-201.2c-51.5-48.1-114-92.4-202.8-143.5
				c-156.9-89.5-349.3-140.3-541.6-142.9C1926.5-1872.8,1921.2-1872.9,1915.9-1872.9z"/>
		</g>
		<g id="pattern">
			<g id="row">
				<path id="dot" class="st5" d="M1219.7-1332.7l0.8,0.8c1.4,1.4,1.5,3.6,0.2,5.1c-0.2,0.2-0.5,0.5-0.8,0.6l-0.1,0.1
					c-2.3,1.4-5.3,1-7.1-1l-0.2-0.2c-1.4-1.6-1.4-4,0.2-5.4c0.1-0.1,0.2-0.2,0.4-0.3C1215-1334.5,1217.8-1334.4,1219.7-1332.7z"/>
				<path id="dot_2" class="st5" d="M1238.3-1326.4l-1.7,0.7c-2.1,0.9-4.6-0.1-5.5-2.2c0,0,0-0.1-0.1-0.1l-0.1-0.2
					c-0.9-2.2,0.2-4.6,2.3-5.5c2.2-1,4.8-0.2,6.3,1.7l0.2,0.2c1.2,1.6,0.8,3.8-0.7,4.9C1238.8-1326.6,1238.6-1326.5,1238.3-1326.4z"
					/>
				<path id="dot_3" class="st5" d="M1250.5-1326.6c-0.9-1.4-0.6-3.1,0.6-4.2l3-2.6c1.1-1,2.9-0.9,3.8,0.3c0.1,0.1,0.2,0.3,0.3,0.5
					c0.9,1.7,0.4,3.8-1.2,4.9l-2.9,2c-1.2,0.8-2.9,0.5-3.7-0.7C1250.5-1326.5,1250.5-1326.5,1250.5-1326.6z"/>
				<path id="dot_4" class="st5" d="M1275.9-1326.5l-2.2,0.9c-2.3,0.9-4.8-0.2-5.8-2.4c-0.9-2.1,0.1-4.6,2.2-5.5c0,0,0.1,0,0.1-0.1
					l0.1,0c2.5-1,5.3-0.2,6.9,1.8l0.1,0.1c1.2,1.4,0.9,3.5-0.5,4.7C1276.5-1326.8,1276.2-1326.6,1275.9-1326.5z"/>
				<path id="dot_5" class="st5" d="M1287.6-1326.3c-1-1.3-1-3.1,0-4.4l1.6-2c1.3-1.6,3.6-1.8,5.2-0.5c0,0,0,0,0,0
					c1.3,1.1,1.5,3.1,0.4,4.4c-0.1,0.1-0.3,0.3-0.4,0.4l-2.9,2.5C1290.4-1325,1288.6-1325.1,1287.6-1326.3
					C1287.6-1326.3,1287.6-1326.3,1287.6-1326.3z"/>
			</g>
			<g id="row_2">
				<path id="dot_6" class="st5" d="M1280.4-1338.2c-0.8-0.6-2-2-2.5-3.3c-0.8-1.9-0.8-2.5-0.1-3.6c1.1-1.7,2.9-1.7,5.3-0.1
					c2.5,1.7,3.7,4.5,2.5,5.9C1284.1-1337.5,1282.1-1337.1,1280.4-1338.2z"/>
				<path id="dot_7" class="st5" d="M1303.8-1344.9l0.8,0.8c1.4,1.4,1.5,3.6,0.2,5.1c-0.2,0.2-0.5,0.5-0.8,0.6l-0.1,0.1
					c-2.3,1.4-5.3,1-7.1-1l-0.2-0.2c-1.4-1.6-1.4-4,0.2-5.4c0.1-0.1,0.2-0.2,0.4-0.3C1299.2-1346.8,1302-1346.7,1303.8-1344.9z"/>
				<path id="dot_8" class="st5" d="M1266.4-1338.7l-1.7,0.7c-2.1,0.9-4.6-0.1-5.5-2.2c0,0,0-0.1-0.1-0.1l-0.1-0.2
					c-0.9-2.2,0.2-4.6,2.3-5.5c2.2-1,4.8-0.3,6.3,1.7l0.2,0.2c1.2,1.6,0.8,3.8-0.7,4.9C1266.9-1338.9,1266.7-1338.8,1266.4-1338.7z"
					/>
				<path id="dot_9" class="st5" d="M1246.9-1338.8c0.9-1.4,0.6-3.1-0.6-4.2l-3-2.6c-1.1-1-2.9-0.9-3.8,0.3
					c-0.1,0.1-0.2,0.3-0.3,0.5c-0.9,1.7-0.4,3.8,1.2,4.9l2.9,2c1.2,0.8,2.9,0.5,3.7-0.7C1246.8-1338.8,1246.9-1338.8,1246.9-1338.8z
					"/>
				<path id="dot_10" class="st5" d="M1223.6-1338.6c-1-1.3-1-3.1,0-4.4l1.6-2c1.3-1.6,3.6-1.8,5.2-0.5c0,0,0,0,0,0
					c1.3,1.1,1.5,3.1,0.4,4.4c-0.1,0.1-0.3,0.3-0.4,0.4l-2.9,2.5C1226.3-1337.2,1224.6-1337.4,1223.6-1338.6
					C1223.6-1338.6,1223.6-1338.6,1223.6-1338.6z"/>
			</g>
			<g id="row_3">
				<path id="dot_11" class="st5" d="M1219.7-1357.2l0.8,0.8c1.4,1.4,1.5,3.6,0.2,5.1c-0.2,0.2-0.5,0.5-0.8,0.6l-0.1,0.1
					c-2.3,1.4-5.3,1-7.1-1l-0.2-0.2c-1.4-1.6-1.4-4,0.2-5.4c0.1-0.1,0.2-0.2,0.4-0.3C1215-1359.1,1217.8-1358.9,1219.7-1357.2z"/>
				<path id="dot_12" class="st5" d="M1238.3-1350.9l-1.7,0.7c-2.1,0.9-4.6-0.1-5.5-2.2c0,0,0-0.1-0.1-0.1l-0.1-0.2
					c-0.9-2.2,0.2-4.6,2.3-5.5c2.2-1,4.8-0.2,6.3,1.7l0.2,0.2c1.2,1.6,0.8,3.8-0.7,4.9C1238.8-1351.2,1238.6-1351,1238.3-1350.9z"/>
				<path id="dot_13" class="st5" d="M1250.5-1351.1c-0.9-1.4-0.6-3.1,0.6-4.2l3-2.6c1.1-1,2.9-0.9,3.8,0.3c0.1,0.1,0.2,0.3,0.3,0.5
					c0.9,1.7,0.4,3.8-1.2,4.9l-2.9,2c-1.2,0.8-2.9,0.5-3.7-0.7C1250.5-1351,1250.5-1351.1,1250.5-1351.1z"/>
				<path id="dot_14" class="st5" d="M1275.9-1351.1l-2.2,0.9c-2.3,0.9-4.8-0.2-5.8-2.4c-0.9-2.1,0.1-4.6,2.2-5.5c0,0,0.1,0,0.1-0.1
					l0.1,0c2.5-1,5.3-0.2,6.9,1.8l0.1,0.1c1.2,1.4,0.9,3.5-0.5,4.7C1276.5-1351.4,1276.2-1351.2,1275.9-1351.1z"/>
				<path id="dot_15" class="st5" d="M1287.6-1350.9c-1-1.3-1-3.1,0-4.4l1.6-2c1.3-1.6,3.6-1.8,5.2-0.5c0,0,0,0,0,0
					c1.3,1.1,1.5,3.1,0.4,4.4c-0.1,0.1-0.3,0.3-0.4,0.4l-2.9,2.5C1290.4-1349.5,1288.6-1349.7,1287.6-1350.9
					C1287.6-1350.9,1287.6-1350.9,1287.6-1350.9z"/>
			</g>
			<g id="row_4">
				<path id="dot_16" class="st5" d="M1280.4-1363.6c-0.8-0.6-2-2-2.5-3.3c-0.8-1.9-0.8-2.5-0.1-3.6c1.1-1.7,2.9-1.7,5.3-0.1
					c2.5,1.7,3.7,4.5,2.5,5.9C1284.1-1362.9,1282.1-1362.5,1280.4-1363.6z"/>
				<path id="dot_17" class="st5" d="M1303.8-1370.4l0.8,0.8c1.4,1.3,1.5,3.6,0.2,5.1c-0.2,0.2-0.5,0.5-0.8,0.6l-0.1,0.1
					c-2.3,1.4-5.3,1-7.1-1l-0.2-0.2c-1.4-1.6-1.4-4,0.2-5.4c0.1-0.1,0.2-0.2,0.4-0.3C1299.2-1372.3,1302-1372.1,1303.8-1370.4z"/>
				<path id="dot_18" class="st5" d="M1266.4-1364.1l-1.7,0.7c-2.1,0.9-4.6-0.1-5.5-2.2c0,0,0-0.1-0.1-0.1l-0.1-0.2
					c-0.9-2.2,0.2-4.6,2.3-5.5c2.2-1,4.8-0.2,6.3,1.7l0.2,0.2c1.2,1.6,0.8,3.8-0.7,4.9C1266.9-1364.3,1266.7-1364.2,1266.4-1364.1z"
					/>
				<path id="dot_19" class="st5" d="M1246.9-1364.3c0.9-1.4,0.6-3.1-0.6-4.2l-3-2.6c-1.1-1-2.9-0.9-3.8,0.3
					c-0.1,0.1-0.2,0.3-0.3,0.5c-0.9,1.7-0.4,3.8,1.2,4.9l2.9,2c1.2,0.8,2.9,0.5,3.7-0.7C1246.8-1364.2,1246.9-1364.2,1246.9-1364.3z
					"/>
				<path id="dot_20" class="st5" d="M1223.6-1364c-1-1.3-1-3.1,0-4.4l1.6-2c1.3-1.6,3.6-1.8,5.2-0.5c0,0,0,0,0,0
					c1.3,1.1,1.5,3.1,0.4,4.4c-0.1,0.1-0.3,0.3-0.4,0.4l-2.9,2.5C1226.3-1362.7,1224.6-1362.8,1223.6-1364
					C1223.6-1364,1223.6-1364,1223.6-1364z"/>
			</g>
			<g id="row_5">
				<path id="dot_21" class="st5" d="M1219.7-1382.6l0.8,0.8c1.4,1.3,1.5,3.6,0.2,5.1c-0.2,0.2-0.5,0.5-0.8,0.6l-0.1,0.1
					c-2.3,1.4-5.3,1-7.1-1l-0.2-0.2c-1.4-1.6-1.4-4,0.2-5.4c0.1-0.1,0.2-0.2,0.4-0.3C1215-1384.5,1217.8-1384.4,1219.7-1382.6z"/>
				<path id="dot_22" class="st5" d="M1238.3-1376.4l-1.7,0.7c-2.1,0.9-4.6-0.1-5.5-2.2c0,0,0-0.1-0.1-0.1l-0.1-0.2
					c-0.9-2.2,0.2-4.6,2.3-5.5c2.2-1,4.8-0.2,6.3,1.7l0.2,0.2c1.2,1.6,0.8,3.8-0.7,4.9C1238.8-1376.6,1238.6-1376.5,1238.3-1376.4z"
					/>
				<path id="dot_23" class="st5" d="M1250.5-1376.5c-0.9-1.4-0.6-3.1,0.6-4.2l3-2.6c1.1-1,2.9-0.9,3.8,0.3c0.1,0.1,0.2,0.3,0.3,0.5
					c0.9,1.7,0.4,3.8-1.2,4.9l-2.9,2c-1.2,0.8-2.9,0.5-3.7-0.7C1250.5-1376.5,1250.5-1376.5,1250.5-1376.5z"/>
				<path id="dot_24" class="st5" d="M1275.9-1376.5l-2.2,0.9c-2.3,0.9-4.8-0.2-5.8-2.4c-0.9-2.1,0.1-4.6,2.2-5.5c0,0,0.1,0,0.1-0.1
					l0.1,0c2.5-1,5.3-0.2,6.9,1.8l0.1,0.1c1.2,1.4,0.9,3.5-0.5,4.7C1276.5-1376.8,1276.2-1376.6,1275.9-1376.5z"/>
				<path id="dot_25" class="st5" d="M1287.6-1376.3c-1-1.3-1-3.1,0-4.4l1.6-2c1.3-1.6,3.6-1.8,5.2-0.5c0,0,0,0,0,0
					c1.3,1.1,1.5,3.1,0.4,4.4c-0.1,0.1-0.3,0.3-0.4,0.4l-2.9,2.5C1290.4-1375,1288.6-1375.1,1287.6-1376.3
					C1287.6-1376.3,1287.6-1376.3,1287.6-1376.3z"/>
			</g>
		</g>
		<g id="pattern_2">
			<path id="arrow" class="st5" d="M2710.3-629c0.2-0.1,0.5-0.1,0.7,0c0.4,0.2,0.8,0.4,1.2,0.7c0.8,0.5,1.6,1.1,2.4,1.6
				c0.6,0.4,1.1,0.8,1.7,1.1c0.6,0.3,1.1,0.7,1.7,1c0.6,0.4,1.2,0.8,1.8,1.2c0.1,0.1,0.2,0.1,0.4,0.2c0.7,0.4,1.3,0.8,2,1.2
				c0.2,0.1,0.4,0.2,0.5,0.3c0.1,0,0.1,0.1,0.2,0.2c0,0.1-0.8,0.6-1.1,0.7c-0.2,0.1-0.4,0.2-0.6,0.4c-0.7,0.5-1.4,1-2.1,1.4
				c-0.5,0.3-0.9,0.6-1.4,0.9c-0.5,0.3-1,0.7-1.4,1c-0.6,0.5-1.2,0.9-1.9,1.3c-0.6,0.4-1.2,0.8-1.8,1.3c-0.1,0.1-0.2,0.2-0.3,0.2
				c-0.4,0.2-0.7,0.5-1.1,0.7c-0.1,0.1-0.2,0.2-0.4,0.2c-0.1,0-0.1-0.1-0.1-0.2c0-0.4,0-0.9,0-1.3c0-0.4,0-0.9-0.1-1.3
				c0-0.3,0-0.6,0-0.8c0-0.5,0.1-1,0.1-1.6c0-1.6,0-3.2-0.1-4.7c0-0.9,0-1.9,0-2.8c0-0.5-0.1-1-0.1-1.4c0-0.4-0.1-0.8-0.1-1.2
				C2710.3-628.9,2710.3-628.9,2710.3-629z"/>
			<path id="arrow_2" class="st5" d="M2685.3-629c0.2-0.1,0.5-0.1,0.7,0c0.4,0.2,0.8,0.4,1.2,0.7c0.8,0.5,1.6,1.1,2.4,1.6
				c0.6,0.4,1.1,0.8,1.7,1.1c0.6,0.3,1.1,0.7,1.7,1c0.6,0.4,1.2,0.8,1.8,1.2c0.1,0.1,0.2,0.1,0.4,0.2c0.7,0.4,1.3,0.8,2,1.2
				c0.2,0.1,0.4,0.2,0.5,0.3c0.1,0,0.1,0.1,0.2,0.2c0,0.1-0.8,0.6-1.1,0.7c-0.2,0.1-0.4,0.2-0.6,0.4c-0.7,0.5-1.4,1-2.1,1.4
				c-0.5,0.3-0.9,0.6-1.4,0.9c-0.5,0.3-1,0.7-1.4,1c-0.6,0.5-1.2,0.9-1.9,1.3c-0.6,0.4-1.2,0.8-1.8,1.3c-0.1,0.1-0.2,0.2-0.3,0.2
				c-0.4,0.2-0.7,0.5-1.1,0.7c-0.1,0.1-0.2,0.2-0.4,0.2c-0.1,0-0.1-0.1-0.1-0.2c0-0.4,0-0.9,0-1.3c0-0.4,0-0.9-0.1-1.3
				c0-0.3,0-0.6,0-0.8c0-0.5,0.1-1,0.1-1.6c0-1.6,0-3.2-0.1-4.7c0-0.9,0-1.9,0-2.8c0-0.5-0.1-1-0.1-1.4c0-0.4-0.1-0.8-0.1-1.2
				C2685.3-628.9,2685.3-628.9,2685.3-629z"/>
			<path id="arrow_3" class="st5" d="M2660.3-629c0.2-0.1,0.5-0.1,0.7,0c0.4,0.2,0.8,0.4,1.2,0.7c0.8,0.5,1.6,1.1,2.4,1.6
				c0.6,0.4,1.1,0.8,1.7,1.1c0.6,0.3,1.1,0.7,1.7,1c0.6,0.4,1.2,0.8,1.8,1.2c0.1,0.1,0.2,0.1,0.4,0.2c0.7,0.4,1.3,0.8,2,1.2
				c0.2,0.1,0.4,0.2,0.5,0.3c0.1,0,0.1,0.1,0.2,0.2c0,0.1-0.8,0.6-1.1,0.7c-0.2,0.1-0.4,0.2-0.6,0.4c-0.7,0.5-1.4,1-2.1,1.4
				c-0.5,0.3-0.9,0.6-1.4,0.9c-0.5,0.3-1,0.7-1.4,1c-0.6,0.5-1.2,0.9-1.9,1.3c-0.6,0.4-1.2,0.8-1.8,1.3c-0.1,0.1-0.2,0.2-0.3,0.2
				c-0.4,0.2-0.7,0.5-1.1,0.7c-0.1,0.1-0.2,0.2-0.4,0.2c-0.1,0-0.1-0.1-0.1-0.2c0-0.4,0-0.9,0-1.3c0-0.4,0-0.9-0.1-1.3
				c0-0.3,0-0.6,0-0.8c0-0.5,0.1-1,0.1-1.6c0-1.6,0-3.2-0.1-4.7c0-0.9,0-1.9,0-2.8c0-0.5-0.1-1-0.1-1.4c0-0.4-0.1-0.8-0.1-1.2
				C2660.3-628.9,2660.3-628.9,2660.3-629z"/>
			<path id="arrow_4" class="st5" d="M2635.3-629c0.2-0.1,0.5-0.1,0.7,0c0.4,0.2,0.8,0.4,1.2,0.7c0.8,0.5,1.6,1.1,2.4,1.6
				c0.6,0.4,1.1,0.8,1.7,1.1c0.6,0.3,1.1,0.7,1.7,1c0.6,0.4,1.2,0.8,1.8,1.2c0.1,0.1,0.2,0.1,0.4,0.2c0.7,0.4,1.3,0.8,2,1.2
				c0.2,0.1,0.4,0.2,0.5,0.3c0.1,0,0.1,0.1,0.2,0.2c0,0.1-0.8,0.6-1.1,0.7c-0.2,0.1-0.4,0.2-0.6,0.4c-0.7,0.5-1.4,1-2.1,1.4
				c-0.5,0.3-0.9,0.6-1.4,0.9c-0.5,0.3-1,0.7-1.4,1c-0.6,0.5-1.2,0.9-1.9,1.3c-0.6,0.4-1.2,0.8-1.8,1.3c-0.1,0.1-0.2,0.2-0.3,0.2
				c-0.4,0.2-0.7,0.5-1.1,0.7c-0.1,0.1-0.2,0.2-0.4,0.2c-0.1,0-0.1-0.1-0.1-0.2c0-0.4,0-0.9,0-1.3c0-0.4,0-0.9-0.1-1.3
				c0-0.3,0-0.6,0-0.8c0-0.5,0.1-1,0.1-1.6c0-1.6,0-3.2-0.1-4.7c0-0.9,0-1.9,0-2.8c0-0.5-0.1-1-0.1-1.4c0-0.4-0.1-0.8-0.1-1.2
				C2635.3-628.9,2635.3-628.9,2635.3-629z"/>
			<path id="arrow_5" class="st5" d="M2716.6-654c0.2-0.1,0.5-0.1,0.7,0c0.4,0.2,0.8,0.4,1.2,0.7c0.8,0.5,1.6,1.1,2.4,1.6
				c0.6,0.4,1.1,0.8,1.7,1.1c0.6,0.3,1.1,0.7,1.7,1c0.6,0.4,1.2,0.8,1.8,1.2c0.1,0.1,0.2,0.1,0.4,0.2c0.7,0.4,1.3,0.8,2,1.2
				c0.2,0.1,0.4,0.2,0.5,0.3c0.1,0,0.1,0.1,0.2,0.2c0,0.1-0.8,0.6-1.1,0.7c-0.2,0.1-0.4,0.2-0.6,0.4c-0.7,0.5-1.4,1-2.1,1.4
				c-0.5,0.3-0.9,0.6-1.4,0.9c-0.5,0.3-1,0.7-1.4,1c-0.6,0.5-1.2,0.9-1.9,1.3c-0.6,0.4-1.2,0.8-1.8,1.3c-0.1,0.1-0.2,0.2-0.3,0.2
				c-0.4,0.2-0.7,0.5-1.1,0.7c-0.1,0.1-0.2,0.2-0.4,0.2c-0.1,0-0.1-0.1-0.1-0.2c0-0.4,0-0.9,0-1.3c0-0.4,0-0.9-0.1-1.3
				c0-0.3,0-0.6,0-0.8c0-0.5,0.1-1,0.1-1.6c0-1.6,0-3.2-0.1-4.7c0-0.9,0-1.9,0-2.8c0-0.5-0.1-1-0.1-1.4c0-0.4-0.1-0.8-0.1-1.2
				C2716.6-653.9,2716.6-653.9,2716.6-654z"/>
			<path id="arrow_6" class="st5" d="M2691.6-654c0.2-0.1,0.5-0.1,0.7,0c0.4,0.2,0.8,0.4,1.2,0.7c0.8,0.5,1.6,1.1,2.4,1.6
				c0.6,0.4,1.1,0.8,1.7,1.1c0.6,0.3,1.1,0.7,1.7,1c0.6,0.4,1.2,0.8,1.8,1.2c0.1,0.1,0.2,0.1,0.4,0.2c0.7,0.4,1.3,0.8,2,1.2
				c0.2,0.1,0.4,0.2,0.5,0.3c0.1,0,0.1,0.1,0.2,0.2c0,0.1-0.8,0.6-1.1,0.7c-0.2,0.1-0.4,0.2-0.6,0.4c-0.7,0.5-1.4,1-2.1,1.4
				c-0.5,0.3-0.9,0.6-1.4,0.9c-0.5,0.3-1,0.7-1.4,1c-0.6,0.5-1.2,0.9-1.9,1.3c-0.6,0.4-1.2,0.8-1.8,1.3c-0.1,0.1-0.2,0.2-0.3,0.2
				c-0.4,0.2-0.7,0.5-1.1,0.7c-0.1,0.1-0.2,0.2-0.4,0.2c-0.1,0-0.1-0.1-0.1-0.2c0-0.4,0-0.9,0-1.3c0-0.4,0-0.9-0.1-1.3
				c0-0.3,0-0.6,0-0.8c0-0.5,0.1-1,0.1-1.6c0-1.6,0-3.2-0.1-4.7c0-0.9,0-1.9,0-2.8c0-0.5-0.1-1-0.1-1.4c0-0.4-0.1-0.8-0.1-1.2
				C2691.6-653.9,2691.6-653.9,2691.6-654z"/>
			<path id="arrow_7" class="st5" d="M2666.6-654c0.2-0.1,0.5-0.1,0.7,0c0.4,0.2,0.8,0.4,1.2,0.7c0.8,0.5,1.6,1.1,2.4,1.6
				c0.6,0.4,1.1,0.8,1.7,1.1c0.6,0.3,1.1,0.7,1.7,1c0.6,0.4,1.2,0.8,1.8,1.2c0.1,0.1,0.2,0.1,0.4,0.2c0.7,0.4,1.3,0.8,2,1.2
				c0.2,0.1,0.4,0.2,0.5,0.3c0.1,0,0.1,0.1,0.2,0.2c0,0.1-0.8,0.6-1.1,0.7c-0.2,0.1-0.4,0.2-0.6,0.4c-0.7,0.5-1.4,1-2.1,1.4
				c-0.5,0.3-0.9,0.6-1.4,0.9c-0.5,0.3-1,0.7-1.4,1c-0.6,0.5-1.2,0.9-1.9,1.3c-0.6,0.4-1.2,0.8-1.8,1.3c-0.1,0.1-0.2,0.2-0.3,0.2
				c-0.4,0.2-0.7,0.5-1.1,0.7c-0.1,0.1-0.2,0.2-0.4,0.2c-0.1,0-0.1-0.1-0.1-0.2c0-0.4,0-0.9,0-1.3c0-0.4,0-0.9-0.1-1.3
				c0-0.3,0-0.6,0-0.8c0-0.5,0.1-1,0.1-1.6c0-1.6,0-3.2-0.1-4.7c0-0.9,0-1.9,0-2.8c0-0.5-0.1-1-0.1-1.4c0-0.4-0.1-0.8-0.1-1.2
				C2666.6-653.9,2666.6-653.9,2666.6-654z"/>
			<path id="arrow_8" class="st5" d="M2641.6-654c0.2-0.1,0.5-0.1,0.7,0c0.4,0.2,0.8,0.4,1.2,0.7c0.8,0.5,1.6,1.1,2.4,1.6
				c0.6,0.4,1.1,0.8,1.7,1.1c0.6,0.3,1.1,0.7,1.7,1c0.6,0.4,1.2,0.8,1.8,1.2c0.1,0.1,0.2,0.1,0.4,0.2c0.7,0.4,1.3,0.8,2,1.2
				c0.2,0.1,0.4,0.2,0.5,0.3c0.1,0,0.1,0.1,0.2,0.2c0,0.1-0.8,0.6-1.1,0.7c-0.2,0.1-0.4,0.2-0.6,0.4c-0.7,0.5-1.4,1-2.1,1.4
				c-0.5,0.3-0.9,0.6-1.4,0.9c-0.5,0.3-1,0.7-1.4,1c-0.6,0.5-1.2,0.9-1.9,1.3c-0.6,0.4-1.2,0.8-1.8,1.3c-0.1,0.1-0.2,0.2-0.3,0.2
				c-0.4,0.2-0.7,0.5-1.1,0.7c-0.1,0.1-0.2,0.2-0.4,0.2c-0.1,0-0.1-0.1-0.1-0.2c0-0.4,0-0.9,0-1.3c0-0.4,0-0.9-0.1-1.3
				c0-0.3,0-0.6,0-0.8c0-0.5,0.1-1,0.1-1.6c0-1.6,0-3.2-0.1-4.7c0-0.9,0-1.9,0-2.8c0-0.5-0.1-1-0.1-1.4c0-0.4-0.1-0.8-0.1-1.2
				C2641.6-653.9,2641.6-653.9,2641.6-654z"/>
			<path id="arrow_9" class="st5" d="M2697.8-679c0.2-0.1,0.5-0.1,0.7,0c0.4,0.2,0.8,0.4,1.2,0.7c0.8,0.5,1.6,1.1,2.4,1.6
				c0.6,0.4,1.1,0.8,1.7,1.1c0.6,0.3,1.1,0.7,1.7,1c0.6,0.4,1.2,0.8,1.8,1.2c0.1,0.1,0.2,0.1,0.4,0.2c0.7,0.4,1.3,0.8,2,1.2
				c0.2,0.1,0.4,0.2,0.5,0.3c0.1,0,0.1,0.1,0.2,0.2c0,0.1-0.8,0.6-1.1,0.7c-0.2,0.1-0.4,0.2-0.6,0.4c-0.7,0.5-1.4,1-2.1,1.4
				c-0.5,0.3-0.9,0.6-1.4,0.9c-0.5,0.3-1,0.7-1.4,1c-0.6,0.5-1.2,0.9-1.9,1.3c-0.6,0.4-1.2,0.8-1.8,1.3c-0.1,0.1-0.2,0.2-0.3,0.2
				c-0.4,0.2-0.7,0.5-1.1,0.7c-0.1,0.1-0.2,0.2-0.4,0.2c-0.1,0-0.1-0.1-0.1-0.2c0-0.4,0-0.9,0-1.3c0-0.4,0-0.9-0.1-1.3
				c0-0.3,0-0.6,0-0.8c0-0.5,0.1-1,0.1-1.6c0-1.6,0-3.2-0.1-4.7c0-0.9,0-1.9,0-2.8c0-0.5-0.1-1-0.1-1.4c0-0.4-0.1-0.8-0.1-1.2
				C2697.8-678.9,2697.8-678.9,2697.8-679z"/>
			<path id="arrow_10" class="st5" d="M2672.8-679c0.2-0.1,0.5-0.1,0.7,0c0.4,0.2,0.8,0.4,1.2,0.7c0.8,0.5,1.6,1.1,2.4,1.6
				c0.6,0.4,1.1,0.8,1.7,1.1c0.6,0.3,1.1,0.7,1.7,1c0.6,0.4,1.2,0.8,1.8,1.2c0.1,0.1,0.2,0.1,0.4,0.2c0.7,0.4,1.3,0.8,2,1.2
				c0.2,0.1,0.4,0.2,0.5,0.3c0.1,0,0.1,0.1,0.2,0.2c0,0.1-0.8,0.6-1.1,0.7c-0.2,0.1-0.4,0.2-0.6,0.4c-0.7,0.5-1.4,1-2.1,1.4
				c-0.5,0.3-0.9,0.6-1.4,0.9c-0.5,0.3-1,0.7-1.4,1c-0.6,0.5-1.2,0.9-1.9,1.3c-0.6,0.4-1.2,0.8-1.8,1.3c-0.1,0.1-0.2,0.2-0.3,0.2
				c-0.4,0.2-0.7,0.5-1.1,0.7c-0.1,0.1-0.2,0.2-0.4,0.2c-0.1,0-0.1-0.1-0.1-0.2c0-0.4,0-0.9,0-1.3c0-0.4,0-0.9-0.1-1.3
				c0-0.3,0-0.6,0-0.8c0-0.5,0.1-1,0.1-1.6c0-1.6,0-3.2-0.1-4.7c0-0.9,0-1.9,0-2.8c0-0.5-0.1-1-0.1-1.4c0-0.4-0.1-0.8-0.1-1.2
				C2672.8-678.9,2672.8-678.9,2672.8-679z"/>
			<path id="arrow_11" class="st5" d="M2647.8-679c0.2-0.1,0.5-0.1,0.7,0c0.4,0.2,0.8,0.4,1.2,0.7c0.8,0.5,1.6,1.1,2.4,1.6
				c0.6,0.4,1.1,0.8,1.7,1.1c0.6,0.3,1.1,0.7,1.7,1c0.6,0.4,1.2,0.8,1.8,1.2c0.1,0.1,0.2,0.1,0.4,0.2c0.7,0.4,1.3,0.8,2,1.2
				c0.2,0.1,0.4,0.2,0.5,0.3c0.1,0,0.1,0.1,0.2,0.2c0,0.1-0.8,0.6-1.1,0.7c-0.2,0.1-0.4,0.2-0.6,0.4c-0.7,0.5-1.4,1-2.1,1.4
				c-0.5,0.3-0.9,0.6-1.4,0.9c-0.5,0.3-1,0.7-1.4,1c-0.6,0.5-1.2,0.9-1.9,1.3c-0.6,0.4-1.2,0.8-1.8,1.3c-0.1,0.1-0.2,0.2-0.3,0.2
				c-0.4,0.2-0.7,0.5-1.1,0.7c-0.1,0.1-0.2,0.2-0.4,0.2c-0.1,0-0.1-0.1-0.1-0.2c0-0.4,0-0.9,0-1.3c0-0.4,0-0.9-0.1-1.3
				c0-0.3,0-0.6,0-0.8c0-0.5,0.1-1,0.1-1.6c0-1.6,0-3.2-0.1-4.7c0-0.9,0-1.9,0-2.8c0-0.5-0.1-1-0.1-1.4c0-0.4-0.1-0.8-0.1-1.2
				C2647.8-678.9,2647.8-678.9,2647.8-679z"/>
			<path id="arrow_12" class="st5" d="M2622.8-679c0.2-0.1,0.5-0.1,0.7,0c0.4,0.2,0.8,0.4,1.2,0.7c0.8,0.5,1.6,1.1,2.4,1.6
				c0.6,0.4,1.1,0.8,1.7,1.1c0.6,0.3,1.1,0.7,1.7,1c0.6,0.4,1.2,0.8,1.8,1.2c0.1,0.1,0.2,0.1,0.4,0.2c0.7,0.4,1.3,0.8,2,1.2
				c0.2,0.1,0.4,0.2,0.5,0.3c0.1,0,0.1,0.1,0.2,0.2c0,0.1-0.8,0.6-1.1,0.7c-0.2,0.1-0.4,0.2-0.6,0.4c-0.7,0.5-1.4,1-2.1,1.4
				c-0.5,0.3-0.9,0.6-1.4,0.9c-0.5,0.3-1,0.7-1.4,1c-0.6,0.5-1.2,0.9-1.9,1.3c-0.6,0.4-1.2,0.8-1.8,1.3c-0.1,0.1-0.2,0.2-0.3,0.2
				c-0.4,0.2-0.7,0.5-1,0.7c-0.1,0.1-0.2,0.2-0.4,0.2c-0.1,0-0.2-0.1-0.2-0.2c0-0.4,0-0.9,0-1.3c0-0.4,0-0.9-0.1-1.3
				c0-0.3,0-0.6,0-0.8c0-0.5,0.1-1,0.1-1.6c0-1.6,0-3.2-0.1-4.7c0-0.9,0-1.9,0-2.8c0-0.5-0.1-1-0.1-1.4c0-0.4-0.1-0.8-0.1-1.2
				C2622.8-678.9,2622.8-678.9,2622.8-679z"/>
			<path id="arrow_13" class="st5" d="M2704.1-704c0.2-0.1,0.5-0.1,0.7,0c0.4,0.2,0.8,0.4,1.2,0.7c0.8,0.5,1.6,1.1,2.4,1.6
				c0.6,0.4,1.1,0.8,1.7,1.1c0.6,0.3,1.1,0.7,1.7,1c0.6,0.4,1.2,0.8,1.8,1.2c0.1,0.1,0.2,0.1,0.4,0.2c0.7,0.4,1.3,0.8,2,1.2
				c0.2,0.1,0.4,0.2,0.5,0.3c0.1,0,0.1,0.1,0.2,0.2c0,0.1-0.8,0.6-1.1,0.7c-0.2,0.1-0.4,0.2-0.6,0.4c-0.7,0.5-1.4,1-2.1,1.4
				c-0.5,0.3-0.9,0.6-1.4,0.9c-0.5,0.3-1,0.7-1.4,1c-0.6,0.5-1.2,0.9-1.9,1.3c-0.6,0.4-1.2,0.8-1.8,1.3c-0.1,0.1-0.2,0.2-0.3,0.2
				c-0.4,0.2-0.7,0.5-1.1,0.7c-0.1,0.1-0.2,0.2-0.4,0.2c-0.1,0-0.1-0.1-0.1-0.2c0-0.4,0-0.9,0-1.3c0-0.4,0-0.9-0.1-1.3
				c0-0.3,0-0.6,0-0.8c0-0.5,0.1-1,0.1-1.6c0-1.6,0-3.2-0.1-4.7c0-0.9,0-1.9,0-2.8c0-0.5-0.1-1-0.1-1.4c0-0.4-0.1-0.8-0.1-1.2
				C2704.1-703.9,2704.1-703.9,2704.1-704z"/>
			<path id="arrow_14" class="st5" d="M2679.1-704c0.2-0.1,0.5-0.1,0.7,0c0.4,0.2,0.8,0.4,1.2,0.7c0.8,0.5,1.6,1.1,2.4,1.6
				c0.6,0.4,1.1,0.8,1.7,1.1c0.6,0.3,1.1,0.7,1.7,1c0.6,0.4,1.2,0.8,1.8,1.2c0.1,0.1,0.2,0.1,0.4,0.2c0.7,0.4,1.3,0.8,2,1.2
				c0.2,0.1,0.4,0.2,0.5,0.3c0.1,0,0.1,0.1,0.2,0.2c0,0.1-0.8,0.6-1.1,0.7c-0.2,0.1-0.4,0.2-0.6,0.4c-0.7,0.5-1.4,1-2.1,1.4
				c-0.5,0.3-0.9,0.6-1.4,0.9c-0.5,0.3-1,0.7-1.4,1c-0.6,0.5-1.2,0.9-1.9,1.3c-0.6,0.4-1.2,0.8-1.8,1.3c-0.1,0.1-0.2,0.2-0.3,0.2
				c-0.4,0.2-0.7,0.5-1.1,0.7c-0.1,0.1-0.2,0.2-0.4,0.2c-0.1,0-0.1-0.1-0.1-0.2c0-0.4,0-0.9,0-1.3c0-0.4,0-0.9-0.1-1.3
				c0-0.3,0-0.6,0-0.8c0-0.5,0.1-1,0.1-1.6c0-1.6,0-3.2-0.1-4.7c0-0.9,0-1.9,0-2.8c0-0.5-0.1-1-0.1-1.4c0-0.4-0.1-0.8-0.1-1.2
				C2679.1-703.9,2679.1-703.9,2679.1-704z"/>
			<path id="arrow_15" class="st5" d="M2654.1-704c0.2-0.1,0.5-0.1,0.7,0c0.4,0.2,0.8,0.4,1.2,0.7c0.8,0.5,1.6,1.1,2.4,1.6
				c0.6,0.4,1.1,0.8,1.7,1.1c0.6,0.3,1.1,0.7,1.7,1c0.6,0.4,1.2,0.8,1.8,1.2c0.1,0.1,0.2,0.1,0.4,0.2c0.7,0.4,1.3,0.8,2,1.2
				c0.2,0.1,0.4,0.2,0.5,0.3c0.1,0,0.1,0.1,0.2,0.2c0,0.1-0.8,0.6-1.1,0.7c-0.2,0.1-0.4,0.2-0.6,0.4c-0.7,0.5-1.4,1-2.1,1.4
				c-0.5,0.3-0.9,0.6-1.4,0.9c-0.5,0.3-1,0.7-1.4,1c-0.6,0.5-1.2,0.9-1.9,1.3c-0.6,0.4-1.2,0.8-1.8,1.3c-0.1,0.1-0.2,0.2-0.3,0.2
				c-0.4,0.2-0.7,0.5-1.1,0.7c-0.1,0.1-0.2,0.2-0.4,0.2c-0.1,0-0.1-0.1-0.1-0.2c0-0.4,0-0.9,0-1.3c0-0.4,0-0.9-0.1-1.3
				c0-0.3,0-0.6,0-0.8c0-0.5,0.1-1,0.1-1.6c0-1.6,0-3.2-0.1-4.7c0-0.9,0-1.9,0-2.8c0-0.5-0.1-1-0.1-1.4c0-0.4-0.1-0.8-0.1-1.2
				C2654.1-703.9,2654.1-703.9,2654.1-704z"/>
			<path id="arrow_16" class="st5" d="M2629.1-704c0.2-0.1,0.5-0.1,0.7,0c0.4,0.2,0.8,0.4,1.2,0.7c0.8,0.5,1.6,1.1,2.4,1.6
				c0.6,0.4,1.1,0.8,1.7,1.1c0.6,0.3,1.1,0.7,1.7,1c0.6,0.4,1.2,0.8,1.8,1.2c0.1,0.1,0.2,0.1,0.4,0.2c0.7,0.4,1.3,0.8,2,1.2
				c0.2,0.1,0.4,0.2,0.5,0.3c0.1,0,0.1,0.1,0.2,0.2c0,0.1-0.8,0.6-1.1,0.7c-0.2,0.1-0.4,0.2-0.6,0.4c-0.7,0.5-1.4,1-2.1,1.4
				c-0.5,0.3-0.9,0.6-1.4,0.9c-0.5,0.3-1,0.7-1.4,1c-0.6,0.5-1.2,0.9-1.9,1.3c-0.6,0.4-1.2,0.8-1.8,1.3c-0.1,0.1-0.2,0.2-0.3,0.2
				c-0.4,0.2-0.7,0.5-1,0.7c-0.1,0.1-0.2,0.2-0.4,0.2c-0.1,0-0.2-0.1-0.2-0.2c0-0.4,0-0.9,0-1.3c0-0.4,0-0.9-0.1-1.3
				c0-0.3,0-0.6,0-0.8c0-0.5,0.1-1,0.1-1.6c0-1.6,0-3.2-0.1-4.7c0-0.9,0-1.9,0-2.8c0-0.5-0.1-1-0.1-1.4c0-0.4-0.1-0.8-0.1-1.2
				C2629.1-703.9,2629.1-703.9,2629.1-704z"/>
			<path id="arrow_17" class="st5" d="M2710.3-729c0.2-0.1,0.5-0.1,0.7,0c0.4,0.2,0.8,0.4,1.2,0.7c0.8,0.5,1.6,1.1,2.4,1.6
				c0.6,0.4,1.1,0.8,1.7,1.1c0.6,0.3,1.1,0.7,1.7,1c0.6,0.4,1.2,0.8,1.8,1.2c0.1,0.1,0.2,0.1,0.4,0.2c0.7,0.4,1.3,0.8,2,1.2
				c0.2,0.1,0.4,0.2,0.5,0.3c0.1,0,0.1,0.1,0.2,0.2c0,0.1-0.8,0.6-1.1,0.7c-0.2,0.1-0.4,0.2-0.6,0.4c-0.7,0.5-1.4,1-2.1,1.4
				c-0.5,0.3-0.9,0.6-1.4,0.9c-0.5,0.3-1,0.7-1.4,1c-0.6,0.5-1.2,0.9-1.9,1.3c-0.6,0.4-1.2,0.8-1.8,1.3c-0.1,0.1-0.2,0.2-0.3,0.2
				c-0.4,0.2-0.7,0.5-1,0.7c-0.1,0.1-0.2,0.2-0.4,0.2c-0.1,0-0.2-0.1-0.2-0.2c0-0.4,0-0.9,0-1.3c0-0.4,0-0.9-0.1-1.3
				c0-0.3,0-0.6,0-0.8c0-0.5,0.1-1,0.1-1.6c0-1.6,0-3.2-0.1-4.7c0-0.9,0-1.9,0-2.8c0-0.5-0.1-1-0.1-1.4c0-0.4-0.1-0.8-0.1-1.2
				C2710.3-728.9,2710.3-728.9,2710.3-729z"/>
			<path id="arrow_18" class="st5" d="M2685.3-729c0.2-0.1,0.5-0.1,0.7,0c0.4,0.2,0.8,0.4,1.2,0.7c0.8,0.5,1.6,1.1,2.4,1.6
				c0.6,0.4,1.1,0.8,1.7,1.1c0.6,0.3,1.1,0.7,1.7,1c0.6,0.4,1.2,0.8,1.8,1.2c0.1,0.1,0.2,0.1,0.4,0.2c0.7,0.4,1.3,0.8,2,1.2
				c0.2,0.1,0.4,0.2,0.5,0.3c0.1,0,0.1,0.1,0.2,0.2c0,0.1-0.8,0.6-1.1,0.7c-0.2,0.1-0.4,0.2-0.6,0.4c-0.7,0.5-1.4,1-2.1,1.4
				c-0.5,0.3-0.9,0.6-1.4,0.9c-0.5,0.3-1,0.7-1.4,1c-0.6,0.5-1.2,0.9-1.9,1.3c-0.6,0.4-1.2,0.8-1.8,1.3c-0.1,0.1-0.2,0.2-0.3,0.2
				c-0.4,0.2-0.7,0.5-1,0.7c-0.1,0.1-0.2,0.2-0.4,0.2c-0.1,0-0.2-0.1-0.2-0.2c0-0.4,0-0.9,0-1.3c0-0.4,0-0.9-0.1-1.3
				c0-0.3,0-0.6,0-0.8c0-0.5,0.1-1,0.1-1.6c0-1.6,0-3.2-0.1-4.7c0-0.9,0-1.9,0-2.8c0-0.5-0.1-1-0.1-1.4c0-0.4-0.1-0.8-0.1-1.2
				C2685.3-728.9,2685.3-728.9,2685.3-729z"/>
			<path id="arrow_19" class="st5" d="M2660.3-729c0.2-0.1,0.5-0.1,0.7,0c0.4,0.2,0.8,0.4,1.2,0.7c0.8,0.5,1.6,1.1,2.4,1.6
				c0.6,0.4,1.1,0.8,1.7,1.1c0.6,0.3,1.1,0.7,1.7,1c0.6,0.4,1.2,0.8,1.8,1.2c0.1,0.1,0.2,0.1,0.4,0.2c0.7,0.4,1.3,0.8,2,1.2
				c0.2,0.1,0.4,0.2,0.5,0.3c0.1,0,0.1,0.1,0.2,0.2c0,0.1-0.8,0.6-1.1,0.7c-0.2,0.1-0.4,0.2-0.6,0.4c-0.7,0.5-1.4,1-2.1,1.4
				c-0.5,0.3-0.9,0.6-1.4,0.9c-0.5,0.3-1,0.7-1.4,1c-0.6,0.5-1.2,0.9-1.9,1.3c-0.6,0.4-1.2,0.8-1.8,1.3c-0.1,0.1-0.2,0.2-0.3,0.2
				c-0.4,0.2-0.7,0.5-1,0.7c-0.1,0.1-0.2,0.2-0.4,0.2c-0.1,0-0.2-0.1-0.2-0.2c0-0.4,0-0.9,0-1.3c0-0.4,0-0.9-0.1-1.3
				c0-0.3,0-0.6,0-0.8c0-0.5,0.1-1,0.1-1.6c0-1.6,0-3.2-0.1-4.7c0-0.9,0-1.9,0-2.8c0-0.5-0.1-1-0.1-1.4c0-0.4-0.1-0.8-0.1-1.2
				C2660.3-728.9,2660.3-728.9,2660.3-729z"/>
			<path id="arrow_20" class="st5" d="M2635.3-729c0.2-0.1,0.5-0.1,0.7,0c0.4,0.2,0.8,0.4,1.2,0.7c0.8,0.5,1.6,1.1,2.4,1.6
				c0.6,0.4,1.1,0.8,1.7,1.1c0.6,0.3,1.1,0.7,1.7,1c0.6,0.4,1.2,0.8,1.8,1.1c0.1,0.1,0.2,0.1,0.4,0.2c0.7,0.4,1.3,0.8,2,1.2
				c0.2,0.1,0.4,0.2,0.5,0.4c0.1,0,0.1,0.1,0.2,0.1c0,0.1-0.8,0.6-1.1,0.7c-0.2,0.2-0.4,0.3-0.6,0.4c-0.7,0.5-1.4,1-2.1,1.4
				c-0.5,0.3-0.9,0.6-1.4,0.9c-0.5,0.3-1,0.7-1.4,1c-0.6,0.5-1.2,0.9-1.9,1.3c-0.6,0.4-1.2,0.8-1.8,1.3c-0.1,0.1-0.2,0.2-0.3,0.2
				c-0.3,0.2-0.7,0.5-1,0.7c-0.1,0.1-0.2,0.1-0.4,0.2c-0.1,0-0.2-0.1-0.2-0.2c0-0.4,0-0.9,0-1.3c0-0.4,0-0.9-0.1-1.3
				c0-0.3,0-0.6,0-0.8c0-0.5,0.1-1,0.1-1.6c0-1.6-0.1-3.2-0.1-4.7c0-1,0-1.9,0-2.8c0-0.5-0.1-1-0.1-1.5c0-0.4-0.1-0.8-0.1-1.2
				C2635.3-728.9,2635.3-728.9,2635.3-729z"/>
		</g>
	</g>
</g>
<g id="lines_1_" class="st6">
	<path id="line_29_" class="st7" d="M1660.4,244.8c-5.9,0-10.9-2.1-15.3-6.4c-3.9-3.8-7.4-9.4-11-17.5c-2.5-5.5-4.7-11.6-7.1-18.1
		l0-0.1c-0.7-1.9-1.4-3.7-2.1-5.6c-3.1-8.2-6.5-17-10.9-25.3c-10.4-19.7-23.5-30.9-41-35.5c-20.8-5.4-50.3-6.6-81.2-7.4
		c-4.4-0.1-8.8-0.2-13.3-0.3l-0.5,0c-28.3-0.7-60.3-1.5-91.7-4.6c-42.4-4.2-76.8-12-105.1-23.7c-35.5-14.7-61.7-35.6-80.2-63.7
		l-0.2-0.3c-37.5-56.9-51.2-125.3-37.5-187.9c6.2-28.2,17.6-54.3,33.9-77.7c17.1-24.5,39.2-45.4,65.7-62l0.1-0.1
		c54.8-34.8,123.1-52.7,197.5-51.7c70.4,1,140.7,19.3,198.2,51.7c56.8,32.3,100.1,65.9,127.2,124.8c27.7,60.7,36.4,132,24.4,200.6
		v0.4l-0.1,0.1c-9.4,60.5-37.6,116.1-86.2,170.1c-14.6,13.9-26.9,23.9-37.5,30.6c-9.9,6.2-18.1,9.4-25.1,9.7
		C1661.1,244.8,1660.7,244.8,1660.4,244.8z M1203,35.6c43,65.2,125.3,80.4,183.5,86.2c31.3,3.1,63.3,3.9,91.5,4.6l0.5,0
		c4.5,0.1,8.9,0.2,13.3,0.3c31.1,0.9,60.7,2.1,81.7,7.5c18.2,4.7,31.7,16.3,42.4,36.6c4.5,8.5,8.1,17.7,11,25.5
		c0.7,1.9,1.4,3.8,2.1,5.7l0,0.1c2.4,6.4,4.6,12.5,7,17.9c3.5,7.9,6.8,13.3,10.5,16.9c4.2,4.1,9,6,14.7,5.7c6.6-0.3,14.5-3.3,24-9.3
		c10.5-6.6,22.6-16.5,37.1-30.2c48.3-53.7,76.4-109.1,85.7-169.3l0.1-0.4c11.8-68.2,3.2-138.9-24.3-199.1
		c-26.9-58.3-69.9-91.6-126.3-123.8c-57.1-32.2-127.1-50.5-197.1-51.4c-73.9-1-141.8,16.8-196.3,51.4l-0.1,0.1
		c-26.2,16.5-48.1,37.1-65,61.4c-16.1,23.1-27.4,49-33.5,76.9c-13.6,62.1,0,130.1,37.3,186.5L1203,35.6z"/>
	<path id="line_28_" class="st7" d="M1686.2,146.8c-4.9,0-9-1.7-12.7-5.3c-3.2-3.1-6.1-7.8-9.2-14.6c-2-4.5-3.8-9.3-5.9-15.2
		l-0.7-1.9c-0.3-0.9-0.7-1.8-1-2.8c-2.6-6.9-5.4-14.2-9.1-21.1c-8.7-16.4-19.6-25.8-34.2-29.6c-17.3-4.5-41.9-5.5-67.7-6.2
		c-3.5-0.1-7-0.2-10.6-0.3l-0.9,0c-23.6-0.6-50.2-1.3-76.4-3.9c-35.3-3.5-64-10-87.6-19.8c-29.6-12.3-51.5-29.6-66.8-53l-0.2-0.3
		c-31.2-47.4-42.6-104.4-31.2-156.5c10.5-48.1,40-89.4,83-116.4l0.1-0.1c45.7-29,102.6-43.9,164.5-43.1
		c58.6,0.8,117.3,16.1,165.1,43.1c47.3,26.9,83.4,54.9,106,104c23.1,50.6,30.3,110,20.3,167.2l0,0.1c-7.8,50.5-31.3,97-71.9,142.1
		c-12.2,11.6-22.4,19.9-31.2,25.5c-8.2,5.2-15.1,7.8-20.9,8C1686.8,146.8,1686.5,146.8,1686.2,146.8z M1305.4-27.7
		c35.7,54.1,104.2,66.8,152.6,71.6c26.1,2.6,52.7,3.3,76.2,3.9l1,0c3.6,0.1,7.1,0.2,10.6,0.3c25.9,0.7,50.6,1.7,68.1,6.2
		c15.3,3.9,26.6,13.7,35.6,30.6c3.7,7,6.6,14.4,9.2,21.3c0.4,0.9,0.7,1.9,1,2.8l0.7,1.9c2.1,5.8,3.9,10.6,5.9,15
		c2.9,6.6,5.7,11,8.7,13.9c3.5,3.4,7.3,4.9,11.9,4.7c5.4-0.2,12.1-2.8,19.8-7.7c8.7-5.5,18.8-13.7,30.8-25.2
		c40.2-44.7,63.6-90.8,71.3-140.8l0-0.1c9.9-56.8,2.8-115.8-20.2-166c-22.3-48.5-58.2-76.2-105.1-103
		c-47.5-26.8-105.8-42-164.1-42.8c-61.6-0.9-118.1,14-163.4,42.8l-0.1,0.1c-42.4,26.6-71.5,67.5-81.9,115
		c-11.3,51.7,0,108.2,31.1,155.2L1305.4-27.7z"/>
	<path id="line_27_" class="st7" d="M1634.5,342.8c-6.8,0-12.7-2.4-17.8-7.5c-4.5-4.4-8.6-10.9-12.8-20.4
		c-2.9-6.5-5.5-13.7-8.3-21.2c-0.8-2.2-1.6-4.4-2.4-6.6c-3.6-9.6-7.6-19.8-12.7-29.5c-12.2-23-27.4-36.1-47.9-41.4
		c-24.3-6.3-58.7-7.7-94.7-8.7c-4.8-0.1-9.7-0.3-14.6-0.4l-1.5,0c-33-0.8-70.3-1.8-106.9-5.4c-49.4-4.9-89.6-14-122.6-27.7
		c-41.4-17.2-72-41.5-93.5-74.3l-0.2-0.3c-43.8-66.4-59.7-146.3-43.7-219.3c7.2-32.9,20.5-63.3,39.5-90.6
		c19.9-28.5,45.6-52.8,76.5-72.2l0.2-0.2c64-40.7,143.7-61.6,230.5-60.4c82.1,1.1,164.2,22.5,231.2,60.3
		c66.2,37.7,116.8,76.9,148.4,145.5c32.3,70.9,42.4,154,28.5,234.2l-0.1,0.4c-11,70.6-43.9,135.5-100.6,198.5
		c-17.1,16.3-31.4,27.9-43.7,35.7c-11.5,7.2-21.1,10.9-29.3,11.3C1635.3,342.8,1634.9,342.8,1634.5,342.8z M1100.6,98.9
		c50.2,76.2,146.4,94,214.4,100.7c36.5,3.6,73.9,4.6,106.8,5.4l1.5,0c4.9,0.1,9.8,0.2,14.6,0.4c36.2,1,70.7,2.4,95.2,8.7
		c21.1,5.4,36.8,18.9,49.3,42.5c5.2,9.8,9.2,20.1,12.9,29.8c0.8,2.2,1.6,4.4,2.4,6.6c2.8,7.5,5.4,14.6,8.3,21.1
		c4.1,9.3,8,15.5,12.4,19.8c5,4.9,10.7,7.1,17.4,6.8c7.8-0.3,17-3.9,28.2-10.9c12.2-7.7,26.4-19.2,43.3-35.3
		c56.5-62.7,89.2-127.4,100.1-197.7v-0.4l0.1-0.1c13.8-79.6,3.7-162.2-28.4-232.5c-31.4-68.1-81.7-107-147.5-144.6
		c-66.7-37.6-148.4-58.9-230.1-60c-86.2-1.2-165.2,19.5-228.8,59.7v0l-0.5,0.3c-30.7,19.3-56.3,43.4-76.1,71.7
		c-18.8,27-32,57.2-39.2,89.8c-15.9,72.6,0,152,43.6,217.9L1100.6,98.9z"/>
	<path id="line_26_" class="st7" d="M1582.8,538.8c-8.8,0-16.3-3.1-22.9-9.6c-5.8-5.7-11.1-14.1-16.5-26.3
		c-3.8-8.5-7.3-18.1-10.7-27.3l-0.5-1.5c-0.9-2.3-1.7-4.6-2.6-7c-4.6-12.4-9.8-25.6-16.4-37.9c-15.7-29.5-35.2-46.4-61.6-53.2
		c-31.2-8-75.4-9.8-121.8-11.1c-6.8-0.2-13.7-0.4-20.7-0.5c-42.4-1.1-90.4-2.3-137.5-7c-63.6-6.3-115.1-17.9-157.7-35.6
		c-53.3-22.1-92.6-53.4-120.3-95.5c-28.4-43-47.7-89.7-57.4-138.8c-9.6-48.5-9.2-96.8,1-143.5c9.3-42.3,26.3-81.4,50.8-116.5
		c25.6-36.8,58.8-68.1,98.6-93c41.8-26.6,89.2-46.7,140.9-59.9c49.3-12.5,101.6-18.5,155.4-17.8c105.5,1.4,211.1,29,297.3,77.5
		c85.1,48.5,150.2,98.9,190.8,187.1c41.6,91.1,54.6,198,36.6,301l0,0.1c-14.1,90.9-56.4,174.6-129.5,255.7
		c-21.9,20.9-40.3,35.9-56.2,45.8c-14.8,9.3-27.1,14.1-37.7,14.5C1583.8,538.8,1583.3,538.8,1582.8,538.8z M1274.3-341
		c-50.5,0-99.6,6-146.1,17.8c-51.5,13.1-98.7,33.1-140.3,59.6c-39.5,24.8-72.5,55.9-98,92.4c-24.3,34.8-41.2,73.7-50.4,115.7
		c-10.2,46.4-10.5,94.4-1,142.6c9.6,48.8,28.8,95.3,57.1,138c64.6,98.5,188.7,121.4,276.3,130.1c47,4.7,95,5.9,137.3,6.9
		c7,0.2,13.9,0.4,20.7,0.5c46.5,1.3,90.9,3.1,122.3,11.2c27,6.9,47,24.2,62.9,54.3c6.6,12.4,11.8,25.7,16.5,38.2
		c0.9,2.3,1.7,4.7,2.6,7l0.5,1.5c3.4,9.2,6.9,18.7,10.6,27.2c5.3,12,10.4,20.1,16,25.6c6.5,6.4,14,9.3,22.8,8.9
		c10.1-0.4,22.1-5.1,36.6-14.2c15.7-9.9,34-24.8,55.8-45.5c72.7-80.8,114.8-164,128.9-254.5l0-0.1c17.9-102.6,5-209.1-36.4-299.8
		c-40.4-87.7-105.2-137.8-189.9-186.1c-85.8-48.4-191-75.8-296.2-77.3C1280.1-340.9,1277.2-341,1274.3-341z"/>
	<path id="line_25_" class="st7" d="M1531.1,734.8c-10.7,0-19.9-3.8-28-11.7c-7.1-7-13.5-17.2-20.2-32.1
		c-4.5-10.2-8.7-21.5-13.1-33.4c-1.2-3.4-2.5-6.9-3.8-10.3c-5.7-15.1-12-31.2-20-46.3c-19.2-36.1-43.1-56.7-75.2-65
		c-38.1-9.8-92.2-12-148.8-13.6c-8-0.2-16.2-0.4-24.5-0.6l-0.8,0c-51.8-1.3-110.5-2.8-168.1-8.5c-77.7-7.7-140.7-21.9-192.7-43.5
		c-65.1-27-113.2-65.2-147-116.7c-34.7-52.5-58.3-109.6-70.2-169.6C607,124,607.4,65,619.9,7.9c11.3-51.6,32.2-99.5,62.1-142.3
		c31.3-44.9,71.9-83.2,120.5-113.7c51.1-32.5,109-57.1,172.3-73.2c60.3-15.3,124.2-22.6,189.9-21.7c129,1.8,258,35.4,363.3,94.8
		c104.1,59.3,183.6,120.9,233.2,228.7c50.8,111.3,66.7,242,44.7,367.9l0,0.1c-17.2,111.1-69,213.4-158.3,312.6
		c-26.8,25.5-49.3,43.8-68.7,56c-18.1,11.4-33.2,17.2-46,17.7C1532.4,734.8,1531.7,734.8,1531.1,734.8z M1154-340.9
		c-61.8,0-121.8,7.3-178.6,21.8c-63,16-120.8,40.5-171.6,72.9c-48.4,30.4-88.7,68.4-119.9,113.1C654.1-90.6,633.3-43,622.1,8.4
		c-12.4,56.8-12.8,115.5-1.2,174.5c11.8,59.8,35.3,116.6,69.9,168.8c33.5,51.1,81.3,89,146,115.9c51.8,21.5,114.6,35.7,192.1,43.4
		c57.5,5.7,116.1,7.2,167.9,8.5l0.8,0c8.3,0.2,16.5,0.4,24.5,0.6c56.8,1.6,111,3.8,149.3,13.7c32.8,8.5,57.2,29.5,76.6,66.1
		c8.1,15.3,14.5,31.4,20.1,46.6c1.3,3.5,2.6,6.9,3.8,10.3c4.4,11.9,8.5,23.1,13,33.2c6.5,14.7,12.8,24.7,19.7,31.5
		c8.1,7.9,17.3,11.5,28.3,11c12.5-0.5,27.2-6.2,45-17.4c19.3-12.1,41.6-30.3,68.3-55.7c88.9-98.8,140.5-200.6,157.7-311.3l0-0.1
		c21.9-125.5,6.1-255.8-44.5-366.7c-49.4-107.3-128.6-168.6-232.3-227.7c-105-59.2-233.6-92.7-362.2-94.5
		C1161.1-340.9,1157.5-340.9,1154-340.9z"/>
	<path id="line_24_" class="st7" d="M1479.4,930.8c-12.7,0-23.5-4.5-33-13.8c-8.4-8.2-16-20.3-23.8-38c-5.3-11.9-10.1-25-15.2-38.9
		l-0.2-0.5c-1.5-4-3-8.1-4.5-12.2c-6.7-17.9-14.2-36.9-23.7-54.8c-22.6-42.6-50.9-67-88.9-76.8c-45.1-11.6-108.9-14.2-175.9-16.1
		c-9.8-0.3-19.8-0.5-29.9-0.8c-61.2-1.6-130.6-3.3-198.6-10c-91.8-9.1-166.3-25.9-227.8-51.4c-77-32-133.8-77.1-173.7-137.9
		C443,417.4,415.1,350,401.1,279c-13.8-70.1-13.4-139.9,1.4-207.3c13.4-61,38-117.6,73.3-168.2c37-53.1,85-98.3,142.4-134.4
		c60.4-38.4,128.9-67.5,203.6-86.5c71.2-18.1,146.8-26.8,224.5-25.7c152.4,2.1,304.9,41.8,429.4,112
		c123,70.1,216.9,142.8,275.7,270.3c60,131.6,78.8,286,52.8,434.8v0.4l-0.1,0.1c-20.4,131.2-81.5,251.9-187,369.1
		c-31.7,30.1-58.2,51.8-81.1,66.2c-21.4,13.4-39.2,20.3-54.4,20.9C1480.9,930.8,1480.1,930.8,1479.4,930.8z M1033.7-340.9
		c-73.1,0-144.1,8.6-211.2,25.7C748-296.2,679.7-267.2,619.5-229c-57.2,35.9-104.9,80.9-141.8,133.8c-35.1,50.4-59.7,106.7-73,167.5
		c-14.7,67.1-15.2,136.6-1.4,206.4c13.9,70.7,41.7,137.9,82.6,199.7c39.7,60.5,96.2,105.3,172.7,137.1
		c61.2,25.4,135.5,42.2,227.1,51.3c67.9,6.7,137.3,8.5,198.5,10c10.1,0.3,20.1,0.5,29.9,0.8c67.1,1.8,131.1,4.5,176.4,16.1
		c38.7,10,67.4,34.7,90.3,77.9c9.6,18,17.1,37.1,23.8,55c1.5,4.1,3,8.2,4.5,12.2l0.2,0.5c5.1,13.9,9.9,26.9,15.2,38.8
		c7.7,17.4,15.1,29.3,23.4,37.3c9.6,9.4,20.6,13.7,33.7,13.2c14.8-0.6,32.3-7.4,53.3-20.6c22.8-14.4,49.2-35.9,80.7-65.9
		c105.2-116.9,166.2-237.3,186.4-368.3l0.1-0.4c25.8-148.3,7.1-302.2-52.7-433.3c-58.5-126.9-152.1-199.5-274.7-269.3
		c-124.1-70-276.2-109.6-428.3-111.7C1042.1-340.9,1037.9-340.9,1033.7-340.9z"/>
	<path id="line_23_" class="st7" d="M1427.7,1126.8c-14.6,0-27.1-5.2-38.1-16c-9.7-9.5-18.5-23.4-27.5-43.8
		c-6.2-14-11.8-29.3-17.8-45.5l-1.8-4.7c-1.1-3.1-2.3-6.2-3.5-9.3c-7.7-20.7-16.4-42.6-27.3-63.2c-26.1-49.2-58.7-77.4-102.6-88.7
		c-52-13.4-125.7-16.4-203-18.5c-11.3-0.3-22.8-0.6-34.5-0.9c-70.7-1.8-150.7-3.8-229.2-11.6c-105.9-10.5-191.9-29.9-262.8-59.4
		c-42.1-17.5-79.7-38.9-111.9-63.8c-35-27.1-64.8-59.2-88.6-95.3c-47.4-71.6-79.6-149.4-95.7-231.3c-16-80.9-15.4-161.4,1.6-239.2
		c15.4-70.4,43.9-135.7,84.6-194.1c42.7-61.3,98-113.4,164.3-155l0,0c69.6-44.3,148.7-77.8,234.9-99.8
		c82.2-20.9,169.3-30.9,259-29.7c175.9,2.4,351.8,48.3,495.4,129.2c141.9,80.8,250.3,164.8,318.1,311.9
		c69.3,151.9,90.9,330.1,61,501.8l-0.1,0.4c-12.2,78.5-37.8,155.4-76.2,228.7c-35,66.8-81.9,133.1-139.6,197.2
		c-36.5,34.8-67.1,59.8-93.6,76.4c-24.7,15.5-45.2,23.4-62.8,24.2C1429.4,1126.8,1428.5,1126.8,1427.7,1126.8z M435.4-211.7
		L435.4-211.7c-66.1,41.5-121.2,93.4-163.8,154.5C231,0.9,202.7,65.9,187.3,136.1c-17,77.5-17.5,157.7-1.6,238.3
		c16.1,81.6,48.2,159.2,95.4,230.5c23.6,36,53.3,67.9,88.1,94.8c32,24.7,69.5,46.1,111.4,63.5c70.7,29.4,156.5,48.7,262.2,59.2
		c78.4,7.8,158.4,9.8,229,11.6c11.7,0.3,23.2,0.6,34.5,0.9c77.4,2.1,151.2,5.2,203.5,18.6c44.5,11.5,77.5,40,104,89.7
		c11,20.7,19.7,42.7,27.4,63.5c1.2,3.1,2.3,6.3,3.5,9.3l1.8,4.7c6,16.2,11.6,31.5,17.8,45.4c8.9,20.1,17.5,33.8,27,43.1
		c11.2,10.9,24,15.9,39.1,15.3c17.2-0.7,37.3-8.5,61.7-23.8c26.3-16.6,56.8-41.4,93.2-76.1c57.4-63.8,104.3-130,139.2-196.7
		c38.3-73.2,63.9-150,76-228.4v-0.4l0.1-0.1c29.8-171.2,8.2-348.8-60.9-500.1c-67.5-146.5-175.6-230.3-317.2-310.9
		c-143.3-80.8-318.8-126.6-494.4-128.9c-89.5-1.2-176.4,8.7-258.4,29.6C583.6-289.3,504.8-255.9,435.4-211.7z"/>
	<path id="line_22_" class="st7" d="M1608.6,440.8c-7.8,0-14.5-2.8-20.3-8.5c-5.2-5.1-9.9-12.5-14.7-23.4
		c-3.2-7.2-6.1-15.2-9.3-23.6l-0.4-1c-0.9-2.4-1.7-4.7-2.6-7.2c-4.1-11-8.7-22.8-14.6-33.7c-13.9-26.2-31.3-41.3-54.7-47.3
		c-27.7-7.1-67-8.8-108.3-9.9c-5.6-0.2-11.4-0.3-17.2-0.4l-1.2,0c-37.7-1-80.4-2-122.2-6.2c-56.5-5.6-102.3-16-140.2-31.7
		c-47.4-19.7-82.3-47.4-106.9-84.9c-25.3-38.2-42.4-79.7-51-123.4c-8.5-43.2-8.2-86.1,0.9-127.6c8.2-37.6,23.4-72.4,45.1-103.5
		c22.8-32.7,52.3-60.5,87.6-82.7l0.1-0.1c73.1-46.5,164.2-70.3,263.3-68.9c93.8,1.3,187.7,25.8,264.2,68.9
		c75.7,43.1,133.5,87.9,169.6,166.3c36.9,81,48.5,176,32.5,267.6l0,0.1c-12.5,80.8-50.1,155.2-115.1,227.3
		c-19.5,18.6-35.8,31.9-49.9,40.8c-13.2,8.3-24.1,12.5-33.5,12.9C1609.6,440.8,1609.1,440.8,1608.6,440.8z M1079.8-272.1
		c-35.1,22-64.3,49.6-86.9,82c-21.6,30.9-36.6,65.5-44.8,102.8c-9,41.2-9.3,83.8-0.9,126.7c8.6,43.4,25.6,84.6,50.7,122.6
		c57.4,87.5,167.6,107.8,245.4,115.6c41.8,4.1,84.4,5.2,122.1,6.2l1.2,0c5.8,0.1,11.5,0.3,17.2,0.4c41.4,1.1,80.8,2.8,108.7,10
		c24,6.2,41.9,21.6,56.1,48.4c5.9,11.1,10.5,22.9,14.7,34c0.9,2.4,1.8,4.8,2.7,7.2l0.4,1c3.1,8.4,6,16.3,9.2,23.5
		c4.7,10.6,9.2,17.8,14.2,22.7c5.7,5.6,12.3,8.2,20.1,7.9c9-0.4,19.6-4.5,32.4-12.5c14-8.8,30.2-22,49.5-40.4
		c64.6-71.7,102-145.7,114.5-226.1l0-0.1c15.9-91.2,4.4-185.8-32.3-266.4c-35.9-77.9-93.4-122.4-168.7-165.3
		c-76.3-43-169.7-67.4-263.2-68.6c-98.7-1.3-189.4,22.4-262.2,68.7L1079.8-272.1z"/>
	<path id="line_21_" class="st7" d="M1556.9,636.8c-9.8,0-18.1-3.5-25.4-10.6c-6.5-6.3-12.3-15.6-18.3-29.2
		c-4.1-9.3-8.1-20-11.9-30.3l-1.3-3.5c-0.7-1.9-1.4-3.9-2.2-5.9c-5.2-13.8-10.9-28.4-18.2-42.1c-17.4-32.8-39.2-51.6-68.4-59.1
		c-34.7-8.9-83.8-10.9-135.3-12.4c-7.5-0.2-15.2-0.4-23-0.6c-47.1-1.2-100.5-2.5-152.8-7.7c-70.6-7-127.9-19.9-175.2-39.6
		c-59.2-24.6-102.9-59.3-133.6-106.1c-31.6-47.7-53-99.6-63.8-154.2C716.9,81.5,717.3,27.9,728.6-24c10.3-46.9,29.3-90.5,56.4-129.4
		c28.5-40.8,65.3-75.6,109.5-103.3l0,0c46.4-29.5,99.1-51.9,156.6-66.5c54.8-13.9,112.9-20.6,172.7-19.8
		c117.3,1.6,234.6,32.2,330.3,86.2C1648.8-203,1721-147,1766.2-49c46.2,101.2,60.6,220,40.6,334.5l0,0.1
		c-15.6,101-62.7,194-143.9,284.2c-24.4,23.2-44.8,39.8-62.4,50.9c-16.5,10.3-30.1,15.6-41.9,16.1
		C1558.1,636.8,1557.5,636.8,1556.9,636.8z M895.8-255L895.8-255c-44,27.6-80.7,62.2-109,102.8c-27,38.7-45.9,82-56.1,128.6
		C719.5,28,719.1,81.4,729.7,135c10.7,54.3,32.1,105.9,63.5,153.4c30.5,46.4,73.9,80.9,132.6,105.3c47.1,19.5,104.2,32.4,174.6,39.4
		c52.2,5.2,105.5,6.5,152.6,7.7c7.8,0.2,15.5,0.4,23,0.6c51.7,1.4,100.9,3.4,135.8,12.4c29.9,7.7,52.1,26.8,69.8,60.2
		c7.3,13.8,13.1,28.5,18.3,42.4c0.7,2,1.5,3.9,2.2,5.9l1.3,3.5c3.8,10.3,7.7,20.9,11.8,30.2c5.9,13.3,11.6,22.4,17.9,28.5
		c7.3,7.1,15.7,10.4,25.5,10c11.3-0.5,24.6-5.6,40.8-15.8c17.5-11,37.8-27.6,62-50.6c80.8-89.8,127.7-182.3,143.3-282.9l0-0.1
		c19.9-114.1,5.5-232.4-40.5-333.3c-44.9-97.5-116.9-153.2-211.1-206.9c-95.4-53.8-212.3-84.3-329.2-85.9
		c-59.6-0.8-117.5,5.8-172.1,19.7C994.5-306.6,942.1-284.3,895.8-255z"/>
	<path id="line_20_" class="st7" d="M1505.2,832.8c-11.7,0-21.7-4.2-30.5-12.8c-7.8-7.6-14.8-18.7-22-35.1
		c-4.9-11-9.4-23.2-14.1-36.1l-0.1-0.3c-1.4-3.7-2.8-7.5-4.2-11.3c-6.2-16.5-13.1-34.1-21.9-50.6c-20.9-39.3-47-61.9-82.1-70.9
		c-41.6-10.7-100.5-13.1-162.4-14.8c-9.1-0.2-18.3-0.5-27.6-0.7c-56.5-1.4-120.6-3.1-183.3-9.3c-84.7-8.4-153.5-23.9-210.2-47.5
		c-71-29.5-123.5-71.1-160.3-127.3l0,0c-37.9-57.3-63.6-119.5-76.6-185c-12.8-64.7-12.3-129.1,1.3-191.3
		c12.3-56.3,35.1-108.6,67.7-155.3c34.2-49,78.4-90.7,131.5-124c55.7-35.4,118.9-62.3,187.9-79.8c65.7-16.7,135.5-24.7,207.2-23.7
		c140.7,1.9,281.5,38.6,396.3,103.4c113.5,64.7,200.3,131.9,254.5,249.5c55.4,121.5,72.7,264,48.8,401.4l0,0.1
		c-18.8,121.2-75.2,232.8-172.6,341c-29.2,27.8-53.7,47.8-74.9,61.1c-19.8,12.4-36.2,18.7-50.2,19.3
		C1506.6,832.8,1505.9,832.8,1505.2,832.8z M588.3,415L588.3,415c36.7,55.9,88.8,97.2,159.4,126.5c56.5,23.5,125.1,38.9,209.6,47.3
		c62.7,6.2,126.7,7.8,183.2,9.3c9.3,0.2,18.5,0.5,27.6,0.7c62,1.7,121.1,4.1,162.9,14.9c35.7,9.2,62.3,32.1,83.5,72
		c8.8,16.6,15.8,34.2,22,50.8c1.4,3.8,2.8,7.6,4.2,11.3l0.1,0.3c4.7,12.8,9.2,25,14.1,36c7.1,16.1,13.9,27,21.5,34.4
		c8.9,8.6,19,12.6,31,12.1c13.6-0.6,29.7-6.8,49.1-19c21.1-13.2,45.4-33.1,74.5-60.8c97-107.8,153.3-219,172-339.8l0-0.1
		c23.9-137,6.6-279.1-48.6-400.2c-54-117.1-140.4-184-253.5-248.5c-114.5-64.6-254.9-101.2-395.3-103.1c-71.6-1-141.1,7-206.6,23.7
		c-68.8,17.5-131.8,44.2-187.3,79.5c-52.8,33.1-96.8,74.6-130.9,123.4c-32.4,46.5-55.1,98.5-67.4,154.5c-13.6,61.9-14,126-1.3,190.5
		C524.9,296,550.6,357.9,588.3,415z"/>
	<path id="line_19_" class="st7" d="M1453.5,1028.8c-13.7,0-25.3-4.9-35.6-14.9c-9.1-8.9-17.2-21.9-25.7-40.9
		c-5.8-13-11-27.3-16.6-42.5l-1-2.8c-1.3-3.4-2.5-6.9-3.8-10.3c-7.2-19.3-15.3-39.9-25.5-59c-24.4-45.9-54.8-72.2-95.8-82.7
		c-48.5-12.5-117.3-15.3-189.4-17.3c-10.4-0.3-21-0.6-31.8-0.8l-0.4,0C962,755.9,887.3,754,814,746.7
		c-98.9-9.8-179.1-27.9-245.3-55.4c-39.3-16.3-74.4-36.3-104.4-59.5c-32.7-25.3-60.5-55.2-82.7-89c-44.2-66.8-74.3-139.5-89.3-215.9
		c-14.9-75.5-14.4-150.6,1.5-223.2c14.4-65.7,41-126.7,79-181.2c39.9-57.2,91.5-105.9,153.4-144.7c65-41.3,138.8-72.7,219.2-93.1
		c76.7-19.5,158-28.8,241.7-27.7c164.2,2.2,328.4,45.1,462.4,120.6c132.4,75.5,233.6,153.8,296.9,291.1
		c64.6,141.7,84.9,308,56.9,468.3v0.4l-0.1,0.1c-11.4,73.3-35.3,145.1-71.1,213.5c-32.7,62.4-76.5,124.3-130.2,184
		c-34.1,32.5-62.7,55.8-87.4,71.3c-23,14.5-42.2,21.9-58.6,22.5C1455.1,1028.8,1454.3,1028.8,1453.5,1028.8z M973.6-340.9
		c-78.7,0-155.2,9.3-227.5,27.7c-80.3,20.4-153.8,51.6-218.6,92.8c-61.7,38.7-113.1,87.2-152.8,144.1C336.8-22,310.3,38.7,296,104.1
		c-15.8,72.3-16.4,147.1-1.5,222.4c15,76.1,45,148.5,89,215.1c22,33.6,49.7,63.3,82.2,88.5c29.9,23.1,64.8,43,103.9,59.2
		c66,27.4,146,45.5,244.7,55.2c73.2,7.3,147.8,9.1,213.7,10.8l0.4,0c10.8,0.3,21.4,0.5,31.8,0.8c72.3,2,141.2,4.8,189.9,17.4
		c41.6,10.7,72.5,37.4,97.2,83.8c10.2,19.2,18.3,39.8,25.6,59.2c1.3,3.5,2.6,6.9,3.8,10.3l1,2.8c5.6,15.1,10.8,29.4,16.6,42.3
		c8.3,18.8,16.3,31.6,25.2,40.2c10.4,10.2,22.3,14.8,36.4,14.2c16-0.7,34.8-7.9,57.5-22.2c24.6-15.4,53-38.7,87-71
		c53.6-59.5,97.3-121.3,129.9-183.5c35.8-68.3,59.6-140,70.9-213.2l0.1-0.4c27.8-159.7,7.6-325.5-56.8-466.8
		c-63-136.7-163.9-214.9-295.9-290.1c-133.7-75.4-297.5-118.1-461.3-120.3C982.6-340.9,978.1-340.9,973.6-340.9z"/>
	<path id="line_18_" class="st7" d="M1401.8,1224.8c-15.6,0-29-5.6-40.7-17c-10.4-10.1-19.7-25-29.3-46.7
		c-6.5-14.7-12.5-30.9-18.8-48.1l-0.2-0.5c-1.8-5-3.7-10-5.6-15c-8.2-22-17.5-45.5-29.1-67.4c-27.9-52.5-62.6-82.5-109.4-94.6
		c-55.4-14.3-134-17.5-216.5-19.8c-12.1-0.3-24.3-0.6-36.8-1c-75.3-1.9-160.7-4.1-244.4-12.4c-113-11.2-204.7-31.9-280.3-63.3
		c-44.9-18.6-85-41.5-119.3-68c-37.4-28.9-69.1-63.1-94.5-101.7C126.3,593,92,510,74.8,422.7c-17-86.3-16.4-172.1,1.7-255.1
		c16.5-75.1,46.8-144.8,90.3-207c45.6-65.4,104.6-121,175.3-165.4c74.3-47.2,158.6-83,250.6-106.4c87.7-22.3,180.6-32.9,276.3-31.6
		c187.6,2.6,375.3,51.5,528.5,137.8c151.4,86.2,267,175.8,339.3,332.7c73.9,162,97,352,65,535.2l0,0.1
		c-13,83.9-40.3,166.1-81.3,244.4c-37.3,71.3-87.4,142-148.9,210.3c-38.9,37.1-71.6,63.7-99.8,81.5c-26.3,16.5-48.2,25-67,25.8
		C1403.7,1224.8,1402.8,1224.8,1401.8,1224.8z M853.3-340.9c-90,0-177.4,10.6-260.1,31.7c-91.7,23.3-175.8,59-249.9,106.1
		C272.8-158.8,214-103.4,168.6-38.3C125.3,23.8,95,93.2,78.6,168c-18.1,82.7-18.7,168.2-1.7,254.3c17.2,87.1,51.4,169.8,101.8,245.9
		c25.2,38.4,56.8,72.4,94,101.2c34.2,26.4,74.1,49.2,118.8,67.7c75.4,31.3,166.9,52,279.7,63.2c83.6,8.3,169,10.4,244.3,12.4
		c12.4,0.3,24.7,0.6,36.8,1c82.6,2.3,161.3,5.5,217,19.8c47.4,12.2,82.7,42.6,110.8,95.7c11.7,22.1,21,45.6,29.3,67.7
		c1.9,5.1,3.7,10.1,5.6,15l0.2,0.5c6.3,17.1,12.3,33.3,18.8,47.9c9.5,21.5,18.7,36.1,28.9,46.1c12,11.7,25.7,17,41.8,16.4
		c18.3-0.8,39.9-9.1,65.9-25.4c28.1-17.7,60.7-44.2,99.4-81.2c61.3-68.1,111.3-138.7,148.5-209.8c40.9-78.1,68.2-160,81.1-243.6
		l0-0.1c31.9-182.8,8.9-372.4-64.9-534c-72-156.3-187.4-245.7-338.4-331.7c-152.8-86.2-340.1-135-527.4-137.6
		C863.7-340.8,858.5-340.9,853.3-340.9z"/>
	<path id="line_17_" class="st7" d="M1376,1322.8c-16.6,0-30.8-5.9-43.2-18.1c-11-10.8-20.9-26.5-31.2-49.7
		c-6.9-15.7-13.3-32.9-20.1-51.2l-0.5-1.5c-1.8-4.9-3.6-9.9-5.5-14.8c-8.8-23.4-18.6-48.3-31-71.6c-29.6-55.7-66.6-87.7-116.3-100.5
		c-58.9-15.2-142.4-18.6-230-21c-12.8-0.4-25.8-0.7-39.1-1c-80.1-2-170.8-4.3-259.7-13.1c-120.1-11.9-217.5-33.9-297.8-67.3
		c-47.7-19.8-90.3-44.1-126.8-72.3c-39.7-30.7-73.5-67-100.4-108.1C20.7,651.5-15.7,563.3-34,470.5c-18.1-91.7-17.5-182.9,1.8-271.1
		c17.5-79.8,49.7-153.8,95.9-220C112.1-90,174.8-149.1,250-196.2c78.9-50.2,168.5-88.2,266.2-113.1c93.1-23.7,191.9-35,293.5-33.6
		c199.4,2.7,398.8,54.7,561.5,146.5C1532-104.8,1654.9-9.6,1731.7,157c78.5,172.1,103,374,69.1,568.6l0,0.1
		c-13.8,89.1-42.9,176.5-86.4,259.7c-39.7,75.7-92.9,150.9-158.2,223.4c-41.4,39.4-76.1,67.7-106.1,86.6
		c-28,17.6-51.3,26.5-71.1,27.4C1377.9,1322.8,1377,1322.8,1376,1322.8z M793.1-340.9c-95.6,0-188.5,11.3-276.4,33.7
		c-97.5,24.8-186.9,62.7-265.6,112.8c-74.9,47-137.4,105.9-185.7,175.1c-46,65.9-78.1,139.7-95.6,219.2
		c-19.3,87.9-19.9,178.8-1.8,270.2c18.2,92.5,54.6,180.4,108.1,261.4c26.8,40.8,60.4,77,99.9,107.5c36.3,28.1,78.8,52.3,126.3,72
		c80.2,33.3,177.4,55.2,297.2,67.1c88.8,8.8,179.5,11.1,259.5,13.1c13.2,0.3,26.3,0.7,39.1,1c87.7,2.4,171.4,5.8,230.5,21.1
		c50.4,13,87.7,45.2,117.7,101.6c12.4,23.4,22.3,48.4,31.1,71.9c1.9,5,3.7,10,5.5,14.9l0.5,1.5c6.7,18.3,13.1,35.5,20,51.1
		c10.1,22.9,19.9,38.4,30.7,49c12.7,12.4,27.3,18.1,44.6,17.4c19.5-0.8,42.4-9.7,70.1-27c29.8-18.8,64.4-47,105.7-86.2
		c65.1-72.3,118.2-147.4,157.8-222.9c43.4-82.9,72.4-170.1,86.2-258.9l0-0.1c33.9-194.2,9.4-395.7-68.9-567.5
		c-76.5-166.1-199.1-261.1-359.6-352.5c-162.4-91.6-361.4-143.5-560.4-146.2C804.2-340.8,798.6-340.9,793.1-340.9z"/>
	<path id="line_16_" class="st7" d="M1324.2,1518.8c-18.5,0-34.3-6.6-48.3-20.2c-12.3-12-23.4-29.7-34.8-55.5
		c-7.9-17.7-15-37.1-22.6-57.7l-0.4-1.2c-2-5.5-4.1-11.1-6.2-16.7c-9.8-26.2-20.7-54-34.6-80c-33.1-62.3-74.4-98-130-112.3
		c-65.9-17-159.2-20.8-257.1-23.5c-11.7-0.3-23.5-0.6-35.5-0.9l-8.5-0.2c-89.4-2.3-190.7-4.8-289.9-14.7
		c-134.2-13.3-243.1-37.9-332.9-75.2c-53.3-22.1-100.9-49.3-141.7-80.8c-44.4-34.3-82.1-74.9-112.2-120.8
		c-60-90.7-100.8-189.3-121.2-293c-20.2-102.5-19.5-204.4,2.1-303C-230,174.1-194,91.4-142.4,17.4C-88.3-60.2-18.2-126.2,65.8-178.9
		C154-235,254.1-277.5,363.3-305.3c104.1-26.5,214.5-39.1,328.1-37.6c222.8,3,445.7,61.2,627.5,163.7
		c102.9,58.6,175.3,109.3,235,164.4c72.1,66.6,127.1,142.1,167.9,230.7c87.7,192.3,115.2,418.1,77.2,635.6l0,0.1
		c-15.4,99.6-47.9,197.2-96.6,290.2c-44.3,84.6-103.8,168.7-176.8,249.7c-46.2,44-85,75.6-118.6,96.7
		c-31.3,19.7-57.3,29.7-79.5,30.6C1326.4,1518.8,1325.3,1518.8,1324.2,1518.8z M672.9-340.8c-106.9,0-210.7,12.6-309,37.6
		C254.9-275.5,155-233.1,67-177.1C-16.8-124.6-86.6-58.7-140.6,18.7C-192,92.4-228,174.8-247.4,263.7
		c-21.5,98.3-22.2,199.9-2.1,302.1c20.4,103.4,61.1,201.7,120.9,292.2c30,45.6,67.5,86.1,111.7,120.3
		c40.6,31.4,88.1,58.5,141.2,80.5c89.6,37.2,198.3,61.7,332.3,75c99.2,9.8,200.4,12.4,289.8,14.7l8.5,0.2c12,0.3,23.8,0.6,35.5,0.9
		c98,2.7,191.5,6.5,257.6,23.6c56.2,14.5,97.9,50.5,131.4,113.4c13.9,26.2,24.9,54.1,34.7,80.3c2.1,5.6,4.1,11.2,6.2,16.7l0.4,1.2
		c7.6,20.5,14.7,39.9,22.5,57.5c11.3,25.6,22.2,43,34.4,54.8c14.3,14,30.6,20.3,50,19.5c21.8-0.9,47.5-10.8,78.4-30.2
		c33.4-21,72.1-52.6,118.2-96.4c72.8-80.9,132.2-164.8,176.4-249.2c48.6-92.7,81-190.1,96.4-289.5l0-0.1
		c37.9-217.1,10.5-442.4-77-634.4c-40.7-88.3-95.5-163.6-167.4-230c-59.5-55-131.9-105.6-234.6-164.1
		c-181.5-102.3-404-160.4-626.5-163.4C685.2-340.8,679-340.8,672.9-340.8z"/>
	<path id="line_15_" class="st7" d="M1350.1,1420.8c-17.6,0-32.5-6.3-45.7-19.2c-11.7-11.4-22.2-28.1-33-52.6
		c-7.4-16.7-14.2-35.1-21.4-54.6c-2.1-5.6-4.1-11.2-6.2-16.9c-9.3-24.8-19.7-51.1-32.8-75.8c-31.3-59-70.5-92.8-123.1-106.4
		c-62.4-16.1-150.8-19.7-243.6-22.2c-13.6-0.4-27.4-0.7-41.4-1.1c-84.8-2.1-180.8-4.6-275-13.9c-127.1-12.6-230.3-35.9-315.4-71.2
		c-50.5-21-95.6-46.7-134.2-76.5c-42-32.5-77.8-71-106.3-114.4c-56.8-85.9-95.5-179.3-114.8-277.6c-19.2-97.1-18.5-193.7,2-287
		C-122.4,146.9-88.2,68.5-39.3-1.5c51.3-73.5,117.6-136.1,197.2-186c83.6-53.1,178.4-93.4,281.9-119.7
		c98.6-25.1,203.2-37.1,310.8-35.6c211.1,2.9,422.2,57.9,594.5,155.1c97.5,55.5,166.1,103.5,222.6,155.7
		c68.3,63.1,120.4,134.6,159,218.5c83.1,182.2,109.1,396,73.2,602.1l0,0.1c-14.6,94.4-45.4,186.9-91.5,274.9
		c-42,80.2-98.3,159.8-167.5,236.6c-43.9,41.8-80.6,71.7-112.3,91.7c-29.6,18.6-54.3,28.1-75.3,29
		C1352.2,1420.8,1351.1,1420.8,1350.1,1420.8z M733-340.9c-101.2,0-199.6,12-292.7,35.6C337.1-279,242.4-238.8,159.1-185.8
		C79.7-136,13.6-73.6-37.5-0.3c-48.7,69.8-82.8,147.9-101.2,232.1c-20.4,93.1-21,189.3-1.9,286.1c19.3,98,57.9,191.1,114.5,276.8
		c28.4,43.2,64,81.5,105.8,113.9c38.4,29.7,83.4,55.4,133.7,76.3c84.9,35.2,187.8,58.5,314.7,71.1c94.1,9.3,190.1,11.8,274.8,13.9
		c14,0.4,27.8,0.7,41.4,1.1c92.9,2.6,181.5,6.2,244.1,22.3c53.3,13.7,92.9,47.9,124.5,107.5c13.2,24.8,23.6,51.2,32.9,76.1
		c2.1,5.7,4.2,11.3,6.2,16.9c7.2,19.4,13.9,37.8,21.3,54.5c10.7,24.2,21.1,40.7,32.5,51.9c13.5,13.2,29,19.2,47.3,18.5
		c20.7-0.9,45-10.2,74.3-28.6c31.6-19.9,68.2-49.7,111.9-91.3c69-76.6,125.2-156.1,167.1-236.1c46-87.8,76.7-180.1,91.3-274.2l0-0.1
		c35.9-205.7,10-419.1-73-600.9c-38.6-83.7-90.4-154.9-158.5-217.8c-56.4-52.1-124.9-100-222.2-155.4
		c-172-97-382.7-151.9-593.4-154.8C744.7-340.8,738.8-340.9,733-340.9z"/>
</g>
</svg>
